<?xml version="1.0" encoding="UTF-8" standalone="no"?>
<!-- Generator: Adobe Illustrator 19.0.0, SVG Export Plug-In . SVG Version: 6.00 Build 0)  -->

<svg
   version="1.1"
   id="Capa_1"
   x="0px"
   y="0px"
   viewBox="0 0 166.237 166.237"
   style="enable-background:new 0 0 166.237 166.237;"
   xml:space="preserve"
   sodipodi:docname="gear.svg"
   inkscape:version="1.3.2 (091e20e, 2023-11-25, custom)"
   inkscape:export-filename="gear.png"
   inkscape:export-xdpi="147.83713"
   inkscape:export-ydpi="147.83713"
   xmlns:inkscape="http://www.inkscape.org/namespaces/inkscape"
   xmlns:sodipodi="http://sodipodi.sourceforge.net/DTD/sodipodi-0.dtd"
   xmlns="http://www.w3.org/2000/svg"
   xmlns:svg="http://www.w3.org/2000/svg"><defs
   id="defs19">
		
		
	</defs><sodipodi:namedview
   id="namedview19"
   pagecolor="#ffffff"
   bordercolor="#000000"
   borderopacity="0.25"
   inkscape:showpageshadow="2"
   inkscape:pageopacity="0.0"
   inkscape:pagecheckerboard="0"
   inkscape:deskcolor="#d1d1d1"
   inkscape:zoom="3.4581821"
   inkscape:cx="1.590431"
   inkscape:cy="108.58306"
   inkscape:window-width="1920"
   inkscape:window-height="1009"
   inkscape:window-x="-8"
   inkscape:window-y="-8"
   inkscape:window-maximized="1"
   inkscape:current-layer="g4" />
<g
   id="g4">
	<path
   style="fill:#010002;"
   d="M100.152,166.237h-34.06v-24.964c-4.18-1.225-8.216-2.903-12.048-5.005l-17.661,17.657   l-24.08-24.073l17.657-17.665c-2.098-3.824-3.768-7.856-4.997-12.051H0V66.085h24.967c1.221-4.18,2.896-8.212,4.997-12.044   L12.304,36.384l24.08-24.088l17.661,17.657c3.817-2.094,7.849-3.765,12.048-4.997V0h34.06v24.956   c4.192,1.233,8.227,2.903,12.044,4.997l17.657-17.657l24.088,24.088L136.28,54.041c2.094,3.817,3.768,7.849,4.997,12.044h24.96   v34.052h-24.96c-1.233,4.203-2.903,8.242-4.993,12.051l17.657,17.665l-24.088,24.073L112.2,136.269   c-3.839,2.109-7.871,3.779-12.048,5.005V166.237z M73.696,158.634h18.853v-23.286l2.918-0.698   c5.409-1.292,10.577-3.438,15.363-6.371l2.558-1.574l16.466,16.469l13.336-13.321l-16.48-16.484l1.578-2.562   c2.918-4.722,5.06-9.89,6.371-15.355l0.702-2.918h23.275V73.688h-23.275l-0.702-2.918c-1.307-5.443-3.449-10.611-6.371-15.363   l-1.574-2.554l16.477-16.469l-13.336-13.336l-16.466,16.469l-2.558-1.574c-4.748-2.911-9.92-5.057-15.37-6.371l-2.911-0.705V7.603   H73.696v23.263l-2.911,0.705c-5.461,1.314-10.633,3.46-15.37,6.371l-2.554,1.574L36.384,23.048L23.055,36.384l16.477,16.469   l-1.574,2.554c-2.933,4.774-5.075,9.942-6.371,15.363l-0.698,2.918H7.603v18.845h23.286l0.698,2.918   c1.299,5.45,3.442,10.611,6.371,15.355l1.578,2.562l-16.48,16.484l13.328,13.321l16.477-16.469l2.554,1.574   c4.774,2.933,9.942,5.079,15.363,6.371l2.918,0.698V158.634z"
   id="path1" />
	<path
   style="fill:#000000;fill-opacity:1"
   d="m 83.119,119.532 c -20.078,0 -36.414,-16.336 -36.414,-36.414 0,-20.078 16.336,-36.414 36.414,-36.414 20.078,0 36.414,16.336 36.414,36.414 0,20.078 -16.337,36.414 -36.414,36.414 z m 0,-65.224 c -15.886,0 -28.81,12.927 -28.81,28.81 0,15.883 12.924,28.81 28.81,28.81 15.886,0 28.81,-12.927 28.81,-28.81 0,-15.883 -12.924,-28.81 -28.81,-28.81 z"
   id="path2" /><path
   style="fill:#000000;fill-opacity:1"
   d="m 83.119,107.637 c -13.51,0 -24.503,-10.997 -24.503,-24.518 0,-13.521 10.992,-24.519 24.503,-24.519 13.518,0 24.518,10.997 24.518,24.518 0,13.521 -11.001,24.519 -24.518,24.519 z m 0,-41.433 c -9.319,0 -16.9,7.589 -16.9,16.915 0,9.326 7.581,16.915 16.9,16.915 9.326,0 16.915,-7.589 16.915,-16.915 0,-9.326 -7.589,-16.915 -16.915,-16.915 z"
   id="path3" />
<path
   style="fill:#007bff;fill-opacity:1;stroke:#000000;stroke-width:0.122684"
   d="m 74.018568,146.70978 -8.59e-4,-11.55276 -3.305225,-0.77952 c -4.356203,-1.02738 -10.873004,-3.72109 -14.68673,-6.07073 l -3.067104,-1.88965 -8.280652,8.25068 -8.280652,8.25068 -6.54425,-6.53466 -6.544252,-6.53466 8.235169,-8.24253 8.235169,-8.24252 -1.503099,-2.47437 C 35.248262,105.9054 33.184258,100.81654 31.490659,94.160072 L 31.048455,92.422046 H 19.409225 7.7699951 v -9.20131 -9.201309 H 19.417196 31.064398 l 0.239784,-1.124605 c 1.157514,-5.428826 3.670698,-11.879815 6.465547,-16.596149 1.043977,-1.76172 1.89814,-3.324262 1.89814,-3.472309 0,-0.148047 -3.633289,-3.905874 -8.073976,-8.35073 l -8.073976,-8.081554 6.437081,-6.437082 6.437082,-6.437081 8.081554,8.073976 c 4.444856,4.440687 8.211361,8.073976 8.370016,8.073976 0.158655,0 1.68458,-0.847602 3.390945,-1.883561 3.777309,-2.29326 9.403898,-4.625354 14.204544,-5.887463 L 74.019427,30.9561 V 19.363047 7.7699951 h 9.201309 9.20131 v 11.6392299 11.63923 l 1.738026,0.442204 c 6.656468,1.693599 11.745328,3.757603 16.729668,6.785424 l 2.47437,1.503099 8.24252,-8.235169 8.24253,-8.235169 6.53466,6.544252 6.53466,6.54425 -8.225,8.280652 -8.225,8.280652 1.9758,3.271577 c 2.34326,3.880025 4.58442,9.264231 5.86584,14.092203 l 0.92697,3.492523 11.51272,0.108604 11.51272,0.108608 v 9.194939 9.194942 h -11.55616 -11.55616 l -0.87219,3.373814 c -1.27425,4.9291 -3.09945,9.40124 -5.63295,13.80196 l -2.23659,3.885 8.15602,8.18158 8.15601,8.18158 -6.43726,6.43727 -6.43727,6.43726 -8.18158,-8.15601 -8.18158,-8.15602 -3.885,2.23659 c -4.40072,2.5335 -8.87286,4.3587 -13.80196,5.63295 l -3.373814,0.87219 v 11.55616 11.55616 h -9.20131 -9.201309 z M 91.938626,118.59655 C 109.60758,114.3337 121.67196,97.00692 119.46656,79.061131 117.43404,62.522189 105.15909,49.617986 88.975833,47.007347 84.689944,46.315959 77.122063,46.716528 73.204694,47.842116 61.053865,51.333442 51.333442,61.053865 47.842116,73.204694 c -1.125588,3.917369 -1.526157,11.48525 -0.834769,15.771139 1.708616,10.591656 7.867225,19.714147 17.176816,25.443317 3.537359,2.17691 9.530533,4.35585 13.720261,4.98827 3.494351,0.52746 10.059154,0.14816 14.034202,-0.81087 z"
   id="path19" /><path
   style="fill:#fff6d6;fill-opacity:1;stroke:#000000;stroke-width:0.030671"
   d="m 80.664817,111.78564 c -2.382629,-0.27569 -3.872995,-0.56576 -5.749664,-1.11905 -6.318405,-1.86282 -11.983544,-6.06026 -15.709871,-11.639818 -2.41569,-3.617096 -3.863798,-7.389806 -4.575744,-11.921038 -0.264007,-1.680292 -0.264007,-6.294176 0,-7.974469 0.838871,-5.339056 2.872475,-9.993845 6.163857,-14.108675 0.897285,-1.121771 3.117665,-3.340812 4.229195,-4.226647 4.568049,-3.640507 9.810937,-5.777886 15.480426,-6.310936 1.645617,-0.154722 5.231578,-0.06891 6.704955,0.160445 4.341714,0.675867 8.226349,2.167643 11.706111,4.495378 1.936048,1.295088 2.926148,2.104482 4.501878,3.68021 4.40282,4.402824 7.11332,9.734243 8.14603,16.022823 0.30608,1.863853 0.33163,6.449701 0.046,8.261871 -0.71527,4.538484 -2.16097,8.304455 -4.57631,11.921038 -3.75001,5.615018 -9.479619,9.838398 -15.848986,11.682518 -2.828491,0.81893 -4.413792,1.04523 -7.604169,1.0855 -1.405755,0.0177 -2.716942,0.0136 -2.913748,-0.009 z m 6.492035,-4.42696 c 4.156355,-0.73968 7.982961,-2.44147 11.246046,-5.0014 1.003706,-0.78742 3.368952,-3.182943 4.106292,-4.158856 2.61035,-3.454948 4.19703,-7.125049 4.90616,-11.348282 0.26958,-1.605507 0.2701,-5.852356 9.1e-4,-7.463285 -1.21139,-7.249368 -5.24755,-13.324697 -11.423686,-17.195205 -2.538557,-1.590883 -5.894098,-2.828106 -9.142432,-3.370912 -1.610928,-0.269191 -5.857778,-0.268674 -7.463285,9.09e-4 -8.086039,1.357736 -14.781118,6.296915 -18.308279,13.50662 -5.954331,12.170965 -0.91408,26.886545 11.241949,32.822141 2.761985,1.34863 5.198406,2.05293 8.446527,2.44166 0.196806,0.0236 1.438983,0.0298 2.760393,0.0139 1.905351,-0.023 2.65646,-0.0741 3.629405,-0.24727 z"
   id="path20" /><path
   style="fill:#fff6d6;fill-opacity:0;stroke:#000000;stroke-width:0.030671"
   d="M 80.948505,99.83093 C 74.554827,98.959158 69.184822,94.522765 67.168036,88.446291 c -1.19564,-3.602401 -1.19564,-7.053181 0,-10.655583 1.780926,-5.365838 6.259133,-9.554466 11.744484,-10.985037 3.921354,-1.022683 8.088602,-0.579944 11.717523,1.2449 1.709018,0.859399 2.864097,1.708857 4.35226,3.200701 1.518824,1.522581 2.360961,2.678427 3.256511,4.469612 1.862406,3.724993 2.231086,8.060463 1.034592,12.166215 -1.268904,4.354223 -4.519339,8.226424 -8.640503,10.293323 -3.008812,1.509018 -6.437019,2.093288 -9.684398,1.650508 z"
   id="path21" /></g>
<g
   id="g5">
</g>
<g
   id="g6">
</g>
<g
   id="g7">
</g>
<g
   id="g8">
</g>
<g
   id="g9">
</g>
<g
   id="g10">
</g>
<g
   id="g11">
</g>
<g
   id="g12">
</g>
<g
   id="g13">
</g>
<g
   id="g14">
</g>
<g
   id="g15">
</g>
<g
   id="g16">
</g>
<g
   id="g17">
</g>
<g
   id="g18">
</g>
<g
   id="g19">
</g>
</svg>
