<?xml version="1.0" encoding="UTF-8" standalone="no"?>
<svg
   width="64"
   height="64"
   viewBox="0 0 64 64"
   fill="none"
   version="1.1"
   xmlns="http://www.w3.org/2000/svg">
  <!-- Quadrante -->
  <circle cx="32" cy="32" r="26" stroke="#222" stroke-width="4" fill="#fff"/>
  <!-- Tacche orarie principali -->
  <line x1="32" y1="10" x2="32" y2="16" stroke="#222" stroke-width="2"/>
  <line x1="32" y1="48" x2="32" y2="54" stroke="#222" stroke-width="2"/>
  <line x1="10" y1="32" x2="16" y2="32" stroke="#222" stroke-width="2"/>
  <line x1="48" y1="32" x2="54" y2="32" stroke="#222" stroke-width="2"/>
  <!-- Lancetta delle ore -->
  <line x1="32" y1="32" x2="32" y2="20" stroke="#222" stroke-width="3" stroke-linecap="round"/>
  <!-- Lancetta dei minuti -->
  <line x1="32" y1="32" x2="44" y2="32" stroke="#4caf50" stroke-width="2" stroke-linecap="round"/>
  <!-- Centro -->
  <circle cx="32" cy="32" r="3" fill="#222"/>
  <!-- Waves indicating ringing -->
  <path d="M8,32 Q4,24 8,16" stroke="#ff9800" stroke-width="2" fill="none"/>
  <path d="M4,32 Q0,24 4,16" stroke="#ff9800" stroke-width="1.5" fill="none"/>
  <path d="M56,32 Q60,24 56,16" stroke="#ff9800" stroke-width="2" fill="none"/>
  <path d="M60,32 Q64,24 60,16" stroke="#ff9800" stroke-width="1.5" fill="none"/>
  <path d="M32,8 Q24,4 16,8" stroke="#ff9800" stroke-width="2" fill="none"/>
  <path d="M32,4 Q24,0 16,4" stroke="#ff9800" stroke-width="1.5" fill="none"/>
  <path d="M32,56 Q24,60 16,56" stroke="#ff9800" stroke-width="2" fill="none"/>
  <path d="M32,60 Q24,64 16,60" stroke="#ff9800" stroke-width="1.5" fill="none"/>
</svg>
