<?xml version="1.0" encoding="UTF-8" standalone="no"?>
<!-- Created with Inkscape (http://www.inkscape.org/) -->

<svg
   width="210mm"
   height="297mm"
   viewBox="0 0 210 297"
   version="1.1"
   id="svg1"
   xml:space="preserve"
   inkscape:version="1.3.2 (091e20e, 2023-11-25, custom)"
   sodipodi:docname="Braccia vettoriale.svg"
   inkscape:export-filename="braccia.png"
   inkscape:export-xdpi="96"
   inkscape:export-ydpi="96"
   xmlns:inkscape="http://www.inkscape.org/namespaces/inkscape"
   xmlns:sodipodi="http://sodipodi.sourceforge.net/DTD/sodipodi-0.dtd"
   xmlns="http://www.w3.org/2000/svg"
   xmlns:svg="http://www.w3.org/2000/svg"
   xmlns:rdf="http://www.w3.org/1999/02/22-rdf-syntax-ns#"
   xmlns:cc="http://creativecommons.org/ns#"
   xmlns:dc="http://purl.org/dc/elements/1.1/"><title
     id="title66">Retro vettorizzato</title><sodipodi:namedview
     id="namedview1"
     pagecolor="#ffffff"
     bordercolor="#000000"
     borderopacity="0.25"
     inkscape:showpageshadow="2"
     inkscape:pageopacity="0.0"
     inkscape:pagecheckerboard="0"
     inkscape:deskcolor="#d1d1d1"
     inkscape:document-units="mm"
     inkscape:zoom="0.32"
     inkscape:cx="1278.125"
     inkscape:cy="373.4375"
     inkscape:window-width="1920"
     inkscape:window-height="1057"
     inkscape:window-x="-8"
     inkscape:window-y="-8"
     inkscape:window-maximized="1"
     inkscape:current-layer="layer1"
     inkscape:export-bgcolor="#e5e5e500"
     showguides="true"><sodipodi:guide
       position="258.41622,-24.558651"
       orientation="0,-1"
       id="guide44"
       inkscape:locked="false" /></sodipodi:namedview><defs
     id="defs1" /><g
     inkscape:label="Livello 1"
     inkscape:groupmode="layer"
     id="layer1"><path
       style="fill:#2594b7;fill-opacity:0;fill-rule:nonzero;stroke:#000000;stroke-width:1.24793;stroke-linecap:round;stroke-linejoin:round;stroke-dasharray:none;paint-order:stroke fill markers"
       d="m 168.46991,61.003523 c -3.71429,50.719787 -6.52886,103.113097 9.16139,152.242407 4.00128,19.80704 1.555,40.2402 -1.04221,60.07281 -0.81111,5.57072 -1.72635,11.1256 -2.67738,16.67379 L 42.734904,290.27456 C 41.783875,284.72637 40.868631,279.1715 40.05752,273.60078 37.46031,253.76817 35.014037,233.335 39.015314,213.52797 54.705565,164.39865 51.890996,112.00534 48.176704,61.285552"
       id="path40-2"
       sodipodi:nodetypes="cccccccc"
       inkscape:export-filename=".\braccio.png"
       inkscape:export-xdpi="96"
       inkscape:export-ydpi="96" /><path
       d="M 151.65862,232.20412"
       style="fill:#2594b7;fill-opacity:0;fill-rule:nonzero;stroke:#000000;stroke-width:1.24793;stroke-linecap:round;stroke-linejoin:round;stroke-dasharray:none;paint-order:stroke fill markers"
       id="path1-0" /><path
       style="fill:#2594b7;fill-opacity:0;fill-rule:nonzero;stroke:#000000;stroke-width:1.24793;stroke-linecap:round;stroke-linejoin:round;stroke-dasharray:none;paint-order:stroke fill markers"
       d="m 13.220625,124.87275 c 11.380911,1.06546 23.728508,0.53787 33.501961,-6.09095"
       id="path82" /><path
       style="fill:#2594b7;fill-opacity:0;fill-rule:nonzero;stroke:#000000;stroke-width:1.24793;stroke-linecap:round;stroke-linejoin:round;stroke-dasharray:none;paint-order:stroke fill markers"
       d="m 22.469265,104.76492 c 7.928473,0.0308 8.603112,0.2048 16.224854,-0.40854"
       id="path84"
       sodipodi:nodetypes="cc" /><path
       style="fill:#2594b7;fill-opacity:0;fill-rule:nonzero;stroke:#000000;stroke-width:1.24793;stroke-linecap:round;stroke-linejoin:round;stroke-dasharray:none;paint-order:stroke fill markers"
       d="m 22.443096,82.868516 c 7.285977,4.59e-4 7.34018,-0.06433 15.935921,-0.28314"
       id="path86"
       sodipodi:nodetypes="cc" /><path
       style="fill:#2594b7;fill-opacity:0;fill-rule:nonzero;stroke:#000000;stroke-width:1.24793;stroke-linecap:round;stroke-linejoin:round;stroke-dasharray:none;paint-order:stroke fill markers"
       d="m 13.017553,60.745224 c 11.674218,0.501462 23.410817,-0.95172 35.03596,0.664053"
       id="path87" /><path
       style="fill:#2594b7;fill-opacity:0;fill-rule:nonzero;stroke:#000000;stroke-width:1.24793;stroke-linecap:round;stroke-linejoin:round;stroke-dasharray:none;paint-order:stroke fill markers"
       d="m 168.55662,61.066971 c -1.01181,10.100088 0.68886,19.087195 0.54094,28.95581 -1.28305,39.745309 7.36113,66.751849 15.42653,98.663879 43.83934,154.62347 15.76085,-41.43972 19.48914,-94.919873 1.26517,-25.65774 -0.73985,-51.261522 2.52303,-76.864696 2.93798,-26.1568226 -26.92951,-31.309413 -45.99136,-35.478182 L 56.123558,-18.339243 C 37.061701,-14.170474 7.1942148,-9.0178835 10.132192,17.138939 13.395073,42.742113 11.390054,68.345895 12.655224,94.003635 15.812794,158.03943 2.5536926,223.77622 -5.6077795,257.09563 40.444676,251.16355 47.944868,134.54877 47.570893,90.259639 47.422979,80.391024 49.123647,71.403917 48.111836,61.303829"
       id="path38-1"
       sodipodi:nodetypes="cccsccccsccc" /><path
       style="fill:#2594b7;fill-opacity:0;fill-rule:nonzero;stroke:#000000;stroke-width:1.24793;stroke-linecap:round;stroke-linejoin:round;stroke-dasharray:none;paint-order:stroke fill markers"
       d="m 203.29802,124.46453 c -11.38366,1.08942 -23.71784,0.5093 -33.50197,-6.09095"
       id="path82-3" /><path
       style="fill:#2594b7;fill-opacity:0;fill-rule:nonzero;stroke:#000000;stroke-width:1.24793;stroke-linecap:round;stroke-linejoin:round;stroke-dasharray:none;paint-order:stroke fill markers"
       d="m 195.16548,104.80505 c -6.39436,-0.0202 -10.80675,0.17168 -15.84251,0.0454"
       id="path84-4"
       sodipodi:nodetypes="cc" /><path
       style="fill:#2594b7;fill-opacity:0;fill-rule:nonzero;stroke:#000000;stroke-width:1.24793;stroke-linecap:round;stroke-linejoin:round;stroke-dasharray:none;paint-order:stroke fill markers"
       d="m 203.34052,60.886115 c -11.67422,0.501462 -23.26466,-1.463291 -34.8898,0.152482"
       id="path87-8"
       sodipodi:nodetypes="cc" /><path
       style="fill:#2594b7;fill-opacity:0;fill-rule:nonzero;stroke:#000000;stroke-width:1.37863;stroke-linecap:round;stroke-linejoin:round;stroke-dasharray:none;paint-order:stroke fill markers"
       d="m 22.090978,61.105267 0.275259,23.944743 c -0.0063,-0.811912 -0.01264,5.942623 -0.01896,17.35255 l 0.08416,22.86071"
       id="path90"
       sodipodi:nodetypes="cccc" /><path
       style="fill:#2594b7;fill-opacity:0;fill-rule:nonzero;stroke:#000000;stroke-width:1.39476;stroke-linecap:round;stroke-linejoin:round;stroke-dasharray:none;paint-order:stroke fill markers"
       d="m 38.742743,60.897992 c -0.25606,20.63737 0.01479,61.910248 0.01479,61.910248"
       id="path92"
       sodipodi:nodetypes="cc" /><path
       style="fill:#ffff00;fill-opacity:0;fill-rule:nonzero;stroke:#000000;stroke-width:1.37863;stroke-linecap:round;stroke-linejoin:round;stroke-dasharray:none;paint-order:stroke fill markers"
       d="m 195.64769,61.195411 c -0.35147,21.177329 -0.32504,42.359529 -0.0821,63.537889"
       id="path90-6" /><path
       style="fill:#ffff00;fill-opacity:0;fill-rule:nonzero;stroke:#000000;stroke-width:1.39476;stroke-linecap:round;stroke-linejoin:round;stroke-dasharray:none;paint-order:stroke fill markers"
       d="m 178.99593,60.988136 c 0.2081,20.567232 0.11701,41.135894 0.0369,61.703544"
       id="path92-2" /><path
       style="fill:#ffff00;fill-opacity:0;stroke:none;stroke-width:6.26374;stroke-linecap:round;stroke-linejoin:round;paint-order:stroke fill markers"
       d="m 87.46015,292.51019 c -0.396948,-9.5708 -0.723379,-26.92881 -0.725403,-38.57335 l -0.0037,-21.1719 23.424043,-0.37276 c 12.88322,-0.20502 25.56142,-0.19841 28.17378,0.0147 l 4.74975,0.38746 v 38.55865 38.55865 H 115.63026 88.181872 Z"
       id="path1"
       transform="scale(0.26458333)" /><path
       style="fill:#ffff00;fill-opacity:0;stroke:none;stroke-width:6.26374;stroke-linecap:round;stroke-linejoin:round;paint-order:stroke fill markers"
       d="m 87.46015,292.51019 c -0.396948,-9.5708 -0.723379,-26.92881 -0.725403,-38.57335 l -0.0037,-21.1719 23.424043,-0.37276 c 12.88322,-0.20502 25.56142,-0.19841 28.17378,0.0147 l 4.74975,0.38746 v 38.55865 38.55865 H 115.63026 88.181872 Z"
       id="path2"
       transform="scale(0.26458333)" /><path
       style="fill:#ffff00;fill-opacity:0;stroke:none;stroke-width:12.5275;stroke-linecap:round;stroke-linejoin:round;paint-order:stroke fill markers"
       d="m 88.756633,308.99093 c -0.810227,-0.81022 -1.47314,-18.21168 -1.47314,-38.6699 v -37.19676 h 27.621357 27.62136 v 37.30732 c 0,36.82116 -0.0648,37.32469 -4.97184,38.63973 -6.78169,1.81742 -46.966126,1.75122 -48.797737,-0.0804 z"
       id="path3"
       transform="scale(0.26458333)" /><path
       style="fill:#ffff00;fill-opacity:0;stroke:none;stroke-width:12.5275;stroke-linecap:round;stroke-linejoin:round;paint-order:stroke fill markers"
       d="m 88.756633,308.99093 c -0.810227,-0.81022 -1.47314,-18.21168 -1.47314,-38.6699 v -37.19676 h 27.621357 27.62136 v 37.30732 c 0,36.82116 -0.0648,37.32469 -4.97184,38.63973 -6.78169,1.81742 -46.966126,1.75122 -48.797737,-0.0804 z"
       id="path4"
       transform="scale(0.26458333)" /><path
       style="fill:#ffff00;fill-opacity:0;stroke:none;stroke-width:12.5275;stroke-linecap:round;stroke-linejoin:round;paint-order:stroke fill markers"
       d="m 87.283493,354.85255 v -37.50677 l 27.675177,-0.67872 27.67518,-0.67872 -0.60624,37.56505 -0.60625,37.56505 -27.06894,0.62044 -27.068927,0.62044 z"
       id="path5"
       transform="scale(0.26458333)" /><path
       style="fill:#ffff00;fill-opacity:1;stroke:none;stroke-width:12.5275;stroke-linecap:round;stroke-linejoin:round;paint-order:stroke fill markers"
       d="m 88.731739,456.25437 c -0.796535,-7.62084 -1.448246,-23.65389 -1.448246,-35.62901 v -21.77294 h 27.682027 27.68203 l -0.61309,31.39396 -0.6131,31.39397 -9.63328,2.7863 c -5.2983,1.53247 -16.82761,3.43824 -25.62068,4.23505 l -15.987415,1.44874 z"
       id="path6"
       transform="scale(0.26458333)" /><path
       style="fill:#ffff00;fill-opacity:1;stroke:none;stroke-width:8.85827;stroke-linecap:round;stroke-linejoin:round;paint-order:stroke fill markers"
       d="m 88.28125,354.75717 v -38.21158 l 27.34568,-0.4603 27.34568,-0.46029 -0.002,37.67824 -0.002,37.67825 -7.24933,0.99363 c -3.98713,0.5465 -16.29182,0.99363 -27.34375,0.99363 H 88.28125 Z"
       id="path7"
       transform="scale(0.26458333)" /><path
       style="fill:#ffff00;fill-opacity:1;stroke:none;stroke-width:8.85827;stroke-linecap:round;stroke-linejoin:round;paint-order:stroke fill markers"
       d="m 87.74789,292.61399 c -0.558211,-9.68769 -1.018126,-26.84251 -1.022034,-38.1218 l -0.0071,-20.50781 4.882813,-0.97657 c 2.685546,-0.53711 15.354081,-0.97656 28.152301,-0.97656 h 23.26948 l -0.41792,38.67188 -0.41792,38.67187 -26.71234,0.42649 -26.712346,0.42649 z"
       id="path8"
       transform="scale(0.26458333)" /><path
       style="fill:#ffff00;fill-opacity:1;stroke:none;stroke-width:8.85827;stroke-linecap:round;stroke-linejoin:round;paint-order:stroke fill markers"
       d="m 683.20313,310.73879 c -2.50933,-0.74487 -2.73438,-4.01722 -2.73438,-39.75961 v -38.94793 h 18.5208 c 10.18643,0 22.6669,0.43322 27.73437,0.96272 l 9.21358,0.96272 -0.54608,37.70916 c -0.30034,20.74003 -0.65191,37.81941 -0.78125,37.95416 -0.71483,0.74475 -49.11834,1.79816 -51.40704,1.11878 z"
       id="path9"
       transform="scale(0.26458333)" /><path
       style="fill:#ffff00;fill-opacity:1;stroke:none;stroke-width:8.85827;stroke-linecap:round;stroke-linejoin:round;paint-order:stroke fill markers"
       d="m 680.47648,355.07813 0.008,-37.89063 27.33601,-0.39821 27.33602,-0.39822 v 38.28884 38.28884 H 707.8125 680.46875 Z"
       id="path10"
       transform="scale(0.26458333)" /><path
       style="fill:#ffff00;fill-opacity:1;stroke:none;stroke-width:8.85827;stroke-linecap:round;stroke-linejoin:round;paint-order:stroke fill markers"
       d="m 719.53125,468.46736 c -8.97025,-0.66076 -25.63755,-3.3345 -33.20312,-5.32638 l -5.85938,-1.54268 v -31.18977 -31.18978 h 27.34375 27.34375 v 35.15625 35.15625 l -4.29687,-0.27298 c -2.36329,-0.15014 -7.46094,-0.50605 -11.32813,-0.79091 z"
       id="path11"
       transform="scale(0.26458333)" /><path
       style="fill:#c8b7b7;fill-opacity:1;stroke:none;stroke-width:17.7165;stroke-linecap:round;stroke-linejoin:round;paint-order:stroke fill markers"
       d="M 161.38366,1072.6563 C 140.00614,946.91081 138.81315,853.27741 157.73099,785.97272 175.62961,722.29413 185.39073,667.23375 192.0853,592.1875 c 6.07567,-68.10828 3.68795,-237.21169 -4.8206,-341.40625 L 185.28699,226.5625 H 116.86225 48.4375 L 48.442,178.90625 C 48.4445,152.69531 46.828491,112.95105 44.850919,90.585666 40.489858,41.264119 42.538299,25.145469 55.64737,5.6312219 74.163863,-21.932544 102.42273,-37.148716 168.75,-55.269618 l 34.375,-9.391402 197.09763,-1.659096 c 196.17887,-1.651363 197.24925,-1.62611 229.6255,5.417562 81.3939,17.707784 124.62,41.951451 140.46309,78.779723 6.11487,14.214387 6.7295,19.594322 5.07916,44.459528 -1.03266,15.558569 -2.7926,58.866763 -3.911,96.240423 l -2.0335,67.95213 -66.48235,-0.76463 c -36.56531,-0.42054 -67.24244,-0.01 -68.17137,0.91298 -9.09588,9.0344 -13.76932,328.46465 -5.7591,393.6349 6.62219,53.87731 15.74947,101.84469 29.09441,152.90225 15.63025,59.801 19.64047,102.2055 15.33578,162.16156 -3.06319,42.66388 -8.84156,91.29819 -15.93941,134.15499 l -3.75228,22.6562 H 409.23781 164.70409 Z"
       id="path12"
       transform="scale(0.26458333)" /><path
       style="fill:#c8b7b7;fill-opacity:1;stroke:none;stroke-width:17.7165;stroke-linecap:round;stroke-linejoin:round;paint-order:stroke fill markers"
       d="M -13.069262,957.03722 C -12.072143,951.448 -6.2555084,924.01909 -0.1434075,896.08406 27.318941,770.56897 51.5625,585.29514 51.5625,500.93783 V 476.5625 l 30.46875,-0.0462 c 31.45922,-0.0477 62.76179,-5.66769 79.3516,-14.24661 5.23075,-2.70493 9.96636,-4.46216 10.52357,-3.90495 1.53987,1.53987 -4.09342,70.73534 -9.62264,118.19775 -25.79105,221.38878 -83.766558,357.68372 -164.2218087,386.07 l -12.9441783,4.56697 z"
       id="path13"
       transform="scale(0.26458333)" /><path
       style="fill:#c8b7b7;fill-opacity:1;stroke:none;stroke-width:17.7165;stroke-linecap:round;stroke-linejoin:round;paint-order:stroke fill markers"
       d="M 772.47695,919.23013 C 741.70098,872.26006 648.4375,531.82984 648.4375,466.46151 c 0,-7.67362 0.96494,-8.90873 5.46875,-6.99992 28.77191,12.19411 65.2537,18.54685 93.50111,16.28177 l 19.28236,-1.5462 1.81789,25.40142 c 7.54133,105.37559 17.83687,302.97042 18.22566,349.79205 0.5995,72.19753 -2.56232,87.68678 -14.25632,69.8395 z"
       id="path14"
       transform="scale(0.26458333)" /><path
       style="fill:#f4e3d7;fill-opacity:1;stroke:none;stroke-width:8.85827;stroke-linecap:round;stroke-linejoin:round;paint-order:stroke fill markers"
       d="M 163.41629,1080.0781 C 148.503,990.4755 142.98415,923.90598 146.04037,870.48578 c 2.15068,-37.59225 4.87623,-54.3425 15.81773,-97.21005 25.67502,-100.59173 34.19549,-173.51118 34.21381,-292.80698 0.0118,-76.66784 -2.83204,-157.75819 -8.04138,-229.29687 l -1.8489,-25.39063 H 117.93216 49.682698 L 48.769014,172.26563 C 48.266488,142.83203 46.731945,103.82444 45.358917,85.582084 41.849416,38.95405 43.885294,24.827028 56.870023,5.7061672 66.097636,-7.8820953 80.333089,-19.937947 97.511117,-28.712338 116.16812,-38.242173 127.57035,-42.36702 167.96875,-54.200936 L 200,-63.58386 343.75,-65.090374 c 187.50334,-1.965054 257.07967,-1.192639 277.34375,3.078985 51.9503,10.951009 90.03555,24.620216 114.11128,40.955775 10.98924,7.45628 26.05436,23.5697921 31.54042,33.735331 8.41621,15.595022 9.32241,22.749924 7.49744,59.195283 -2.36689,47.26777 -4.68855,114.22439 -4.70095,135.57558 l -0.0107,18.38806 -67.05528,-0.41931 c -36.88041,-0.23063 -67.46906,-0.006 -67.97478,0.49815 -1.86805,1.86397 -3.98702,18.5271 -5.54616,43.61377 -4.33228,69.70692 -6.03339,246.24903 -3.01594,312.99684 2.45804,54.37264 12.08525,113.23824 31.02743,189.71679 9.73657,39.31123 13.33112,59.1685 15.77223,87.13012 3.86952,44.32341 -1.53208,117.0872 -15.22387,205.0781 l -4.19404,26.9532 H 409.31128 165.30172 Z"
       id="path29"
       transform="scale(0.26458333)" /><path
       style="fill:#f4e3d7;fill-opacity:1;stroke:none;stroke-width:8.85827;stroke-linecap:round;stroke-linejoin:round;paint-order:stroke fill markers"
       d="M 776.30156,922.34895 C 756.69703,901.00717 696.76205,705.5832 664.05143,556.34625 c -12.3038,-56.13417 -17.84182,-96.19 -13.29898,-96.19 1.10091,0 8.06167,2.07012 15.46835,4.60026 25.84216,8.82776 43.36801,11.57539 73.23233,11.48109 23.14421,-0.0731 26.95312,0.25145 26.95312,2.29648 0,1.30987 1.3965,22.84744 3.10332,47.86125 8.24547,120.83853 15.91326,279.68012 16.07399,332.97967 0.13108,43.46527 -0.91093,59.64602 -4.12407,64.04025 -1.6708,2.28494 -2.1753,2.18066 -5.15793,-1.0663 z"
       id="path30"
       transform="scale(0.26458333)" /><path
       style="fill:#f4e3d7;fill-opacity:1;stroke:none;stroke-width:8.85827;stroke-linecap:round;stroke-linejoin:round;paint-order:stroke fill markers"
       d="M -12.604841,959.20794 C -11.995401,955.86231 -7.0221442,932.03125 -1.5531597,906.25 28.404947,765.02498 49.076947,612.81973 51.842988,513.10112 l 0.980176,-35.33638 29.838417,-0.85271 c 39.170139,-1.11939 62.882149,-5.55316 82.572799,-15.43981 l 5.85937,-2.94198 v 7.75007 c 0,10.30528 -3.97686,57.82033 -7.9225,94.65719 -20.58258,192.16052 -65.770542,324.81495 -129.222144,379.34636 -10.096861,8.67741 -33.71328256,21.79556 -43.1493127,23.96803 -4.5068363,1.03763 -4.5112653,1.03106 -3.4046343,-5.04395 z"
       id="path31"
       transform="scale(0.26458333)" /><path
       style="fill:#f4e3d7;fill-opacity:1;stroke:none;stroke-width:17.7165;stroke-linecap:round;stroke-linejoin:round;paint-order:stroke fill markers"
       d=""
       id="path32"
       transform="scale(0.26458333)" /><path
       style="fill:#f4e3d7;fill-opacity:1;stroke:none;stroke-width:8.85827;stroke-linecap:round;stroke-linejoin:round;paint-order:stroke fill markers"
       d="m 766.52961,349.86979 c 0.075,-1.82022 0.44521,-2.19047 0.94401,-0.94401 0.45136,1.12793 0.39585,2.47559 -0.12336,2.99479 -0.5192,0.51921 -0.8885,-0.40364 -0.82065,-2.05078 z"
       id="path42"
       transform="scale(0.26458333)" /><path
       style="fill:#f4e3d7;fill-opacity:1;stroke:none;stroke-width:0.553642;stroke-linecap:round;stroke-linejoin:round;paint-order:stroke fill markers"
       d=""
       id="path48"
       transform="scale(0.26458333)" /><path
       style="fill:#000000;fill-opacity:1;stroke:#000000;stroke-width:0.097871;stroke-linecap:round;stroke-linejoin:round;paint-order:stroke fill markers;stroke-opacity:0.99779248"
       d="m 674.28032,286.31696 c -1.1e-4,-0.15429 -0.008,-1.84977 -0.0168,-3.76772 -0.009,-1.91796 -0.0244,-5.17297 -0.0339,-7.23335 -0.01,-2.06038 -0.022,-4.15982 -0.0278,-4.66542 l -0.0104,-0.91927 h 0.43582 0.43582 l -0.0119,5.00206 c -0.0109,4.5949 -0.0236,6.98548 -0.0561,10.53927 l -0.0121,1.32496 h -0.35127 -0.35126 z"
       id="path49"
       transform="scale(0.26458333)" /><path
       style="fill:#000000;fill-opacity:1;stroke:#000000;stroke-width:0.391484;stroke-linecap:round;stroke-linejoin:round;stroke-opacity:0.997793;paint-order:stroke fill markers"
       d="m 677.35317,464.90155 c -1.94191,-0.34411 -2.52932,-3.23761 -2.88072,-14.19003 -0.0402,-1.25332 -0.09,-7.55358 -0.11067,-14.00058 l -0.0376,-11.72181 h 1.49205 1.49205 l 8.7e-4,8.61441 c 10e-4,9.95476 0.0858,14.63584 0.34982,19.31769 0.33394,5.92132 0.90225,9.12894 1.83841,10.37628 0.0931,0.12399 0.3304,0.30665 0.52744,0.40591 0.81258,0.40938 0.93141,0.63829 0.4528,0.87232 -0.53399,0.26112 -2.39465,0.45514 -3.1245,0.32581 z"
       id="path51"
       transform="scale(0.26458333)" /><path
       style="fill:#000000;fill-opacity:1;stroke:#000000;stroke-width:0.782968;stroke-linecap:round;stroke-linejoin:round;stroke-opacity:0.997793;paint-order:stroke fill markers"
       d="m 630.30896,309.66996 c 0.0351,-0.17091 0.10188,-1.21189 0.14834,-2.31329 0.25117,-5.95433 1.0048,-17.91037 2.07186,-32.86942 1.23363,-17.29403 2.31035,-33.09763 2.69461,-39.55004 0.0967,-1.62414 0.21535,-2.60055 0.34684,-2.85483 0.20059,-0.3879 0.88419,-0.96066 1.14656,-0.96066 0.0772,0 0.17356,0.38842 0.21418,0.86317 0.0406,0.47474 0.26602,9.65711 0.50091,20.40528 0.4421,20.23084 0.58243,25.60133 0.83661,32.01937 0.0823,2.0771 0.12958,3.79604 0.10515,3.81987 -0.0244,0.0238 -0.74366,0.0645 -1.59829,0.0905 l -1.55387,0.0471 -0.002,-0.41432 c -0.001,-0.22787 -0.0606,-0.50702 -0.13218,-0.62032 -0.50179,-0.79369 -1.0322,2.02305 -1.65118,8.76863 -0.33593,3.66082 -0.97649,12.34583 -0.97649,13.23957 v 0.64016 h -1.10748 c -1.07536,0 -1.10564,-0.009 -1.04362,-0.31074 z"
       id="path55"
       transform="scale(0.26458333)" /><path
       style="fill:#000000;fill-opacity:1;stroke:#000000;stroke-width:1.0022;stroke-linecap:round;stroke-linejoin:round;stroke-opacity:0.997793;paint-order:stroke fill markers"
       d="m 789.85097,915.1423 c -0.51482,-1.34162 -0.54971,-17.62271 -0.0893,-41.68865 0.33464,-17.49296 -0.0841,-44.7952 -1.07093,-69.8268 -0.092,-2.33345 -0.22179,-5.73419 -0.28842,-7.5572 l -0.12116,-3.31456 h 1.16124 1.16123 l 0.1,1.28163 c 0.10575,1.35551 0.35666,9.87927 0.63613,21.61095 0.73899,31.02092 0.65698,70.58179 -0.18159,87.59285 -0.27897,5.65919 -0.85799,11.88304 -1.13088,12.15593 -0.0313,0.0313 -0.11063,-0.0831 -0.17628,-0.25415 z"
       id="path56"
       transform="scale(0.26458333)" /><path
       style="fill:#000000;fill-opacity:1;stroke:#000000;stroke-width:0.501099;stroke-linecap:round;stroke-linejoin:round;stroke-opacity:0.997793;paint-order:stroke fill markers"
       d="m 788.16734,791.36297 c -0.0287,-0.44967 -0.11303,-2.24948 -0.18732,-3.99957 -0.34621,-8.15524 -1.03702,-22.28955 -1.63452,-33.44303 -0.19367,-3.61514 -0.35212,-6.60819 -0.35212,-6.65122 0,-0.043 0.55685,-0.0782 1.23744,-0.0782 h 1.23743 l 8e-5,0.28726 c 4e-5,0.15799 0.13863,2.71352 0.30798,5.67895 1.02743,17.99152 1.90155,35.6958 1.90164,38.51522 l 10e-6,0.50823 h -1.22919 -1.22918 z"
       id="path57"
       transform="scale(0.26458333)" /><path
       style="fill:#000000;fill-opacity:1;stroke:#000000;stroke-width:0.553642;stroke-linecap:round;stroke-linejoin:round;stroke-opacity:0.997793;paint-order:stroke fill markers"
       d="m 785.94661,746.21582 c -0.031,-0.3894 -0.1014,-1.56494 -0.1564,-2.6123 -0.16431,-3.12897 -1.16084,-20.76133 -1.31815,-23.32301 -0.0802,-1.30665 -0.14588,-2.41627 -0.14588,-2.46582 0,-0.0501 0.53253,-0.0901 1.20038,-0.0901 h 1.20038 l 0.16696,2.90528 c 0.95585,16.63315 1.43773,24.90586 1.48754,25.53711 l 0.0597,0.75683 h -1.21908 -1.21908 z"
       id="path72"
       transform="scale(0.26458333)" /><path
       style="fill:#000000;fill-opacity:1;stroke:#000000;stroke-width:1.56594;stroke-linecap:round;stroke-linejoin:round;stroke-opacity:0.997793;paint-order:stroke fill markers"
       d="m 784.20237,714.22414 c -0.15155,-2.62348 -2.36637,-38.63116 -5.83205,-94.81517 -0.94159,-15.26453 -4.55743,-77.55353 -4.55768,-78.51371 -2.7e-4,-1.03574 -2e-4,-1.0358 1.18271,-1.0358 h 1.18298 l 0.76284,14.15594 c 1.19728,22.21791 2.48286,44.2105 5.2919,90.52901 3.6877,60.80683 4.3663,72.38069 4.24973,72.48179 -0.0565,0.049 -0.55045,0.16992 -1.09769,0.2687 l -0.99498,0.17961 z"
       id="path73"
       transform="scale(0.26458333)" /><path
       style="fill:#000000;fill-opacity:1;stroke:#000000;stroke-width:0.276821;stroke-linecap:round;stroke-linejoin:round;stroke-opacity:0.997793;paint-order:stroke fill markers"
       d="m 773.55957,539.26205 c 0,-0.0125 -0.0546,-0.96336 -0.12128,-2.11307 -0.41405,-7.13653 -1.46094,-25.87646 -1.95255,-34.95171 -0.17458,-3.22266 -0.33168,-6.10657 -0.34913,-6.40869 l -0.0317,-0.54932 h 1.46732 1.46731 l 0.0274,0.354 c 0.0151,0.19471 0.0394,0.61768 0.0542,0.93995 0.0949,2.07176 0.60228,12.57488 0.80673,16.69921 0.45513,9.18147 1.24099,24.53587 1.29765,25.35401 l 0.0313,0.45166 -0.84809,0.002 c -0.94292,0.002 -1.4819,0.0553 -1.70236,0.16928 -0.0807,0.0417 -0.14671,0.0657 -0.14671,0.0532 z"
       id="path74"
       transform="scale(0.26458333)" /><path
       style="fill:#000000;fill-opacity:1;stroke:#000000;stroke-width:1.56594;stroke-linecap:round;stroke-linejoin:round;stroke-opacity:0.997793;paint-order:stroke fill markers"
       d="m 771.20285,494.49138 c -0.0584,-0.1899 -0.31151,-4.81993 -0.56238,-10.28896 -0.25087,-5.46903 -0.52187,-10.17256 -0.60223,-10.45228 -0.2983,-1.03842 -1.88686,-1.392 -6.72199,-1.49617 -2.50664,-0.054 -6.2666,0.003 -8.35546,0.12655 l -3.79794,0.22474 v -1.45203 -1.45202 h 9.80558 9.80559 v -1.23853 c 0,-0.6812 -0.30608,-6.49204 -0.68016,-12.91299 -1.52001,-26.08984 -2.07953,-39.83038 -2.08097,-51.10394 l -10e-4,-7.94114 c 0.17427,-4.94335 -0.0701,-8.60821 0.2743,-12.84394 0.45442,-5.46903 0.8272,-10.22335 0.82839,-10.56517 0.002,-0.55493 0.13946,-0.62148 1.28439,-0.62148 h 1.28223 l -0.1887,5.17901 c -0.10378,2.84845 -0.33897,6.23552 -0.52264,7.52682 -0.22738,1.5986 -0.32268,6.44644 -0.29866,15.19175 0.0433,15.76133 0.62305,34.44822 2.18523,70.43446 0.3792,8.73525 0.76882,17.71565 0.86583,19.95643 l 0.17637,4.07415 h -1.29476 c -0.79499,0 -1.33577,-0.13327 -1.40101,-0.34526 z"
       id="path75"
       transform="scale(0.26458333)"
       sodipodi:nodetypes="ssssscccccssscssscssssscsss" /><path
       style="fill:#000000;fill-opacity:1;stroke:#000000;stroke-width:0.391484;stroke-linecap:round;stroke-linejoin:round;stroke-opacity:0.997793;paint-order:stroke fill markers"
       d="m 769.08256,371.76452 c 2e-4,-0.0276 0.0306,-0.62495 0.0675,-1.32757 0.30079,-5.72269 1.02645,-28.0179 1.27886,-39.29138 0.0208,-0.9305 0.0556,-2.01032 0.0773,-2.39961 l 0.0394,-0.7078 h 1.21167 1.21168 l -0.0465,2.01981 c -0.35717,15.53206 -0.44578,19.1624 -0.66532,27.25883 -0.13731,5.06394 -0.29922,10.51666 -0.38702,13.03383 l -0.0464,1.32928 h -1.19368 c -0.65652,0 -1.27338,0.0303 -1.3708,0.0673 -0.0974,0.037 -0.17697,0.0448 -0.17678,0.0173 z"
       id="path76"
       transform="scale(0.26458333)" /><path
       style="fill:#000000;fill-opacity:1;stroke:#000000;stroke-width:0.276821;stroke-linecap:round;stroke-linejoin:round;stroke-opacity:0.997793;paint-order:stroke fill markers"
       d="m 770.54983,326.47705 c 0.24227,-9.79802 0.34002,-13.88637 0.44569,-18.64013 0.0689,-3.10181 0.13785,-5.86487 0.15311,-6.14014 l 0.0278,-0.50049 h 1.16718 1.16718 v 0.32959 c -1e-5,0.93951 -0.47121,24.0414 -0.51889,25.43945 l -0.0287,0.84229 h -1.22311 -1.2231 z"
       id="path77"
       transform="scale(0.26458333)" /><path
       style="fill:#000000;fill-opacity:1;stroke:#000000;stroke-width:0.276821;stroke-linecap:round;stroke-linejoin:round;stroke-opacity:0.997793;paint-order:stroke fill markers"
       d="m 771.16708,300.72022 c 4e-5,-0.18128 0.0329,-1.74683 0.0731,-3.47901 0.11454,-4.93767 0.3578,-16.51622 0.41599,-19.7998 0.029,-1.63819 0.0643,-3.09387 0.0783,-3.23487 l 0.0255,-0.25634 h 1.11953 1.11954 l -4.9e-4,0.40283 c -2.6e-4,0.22156 -0.0545,3.45703 -0.1205,7.18994 -0.066,3.73291 -0.16489,9.35791 -0.21974,12.5 -0.0548,3.14209 -0.11273,6.00403 -0.12864,6.35986 l -0.0289,0.64698 h -1.16687 -1.16687 z"
       id="path78"
       transform="scale(0.26458333)" /><path
       style="fill:#000000;fill-opacity:1;stroke:#000000;stroke-width:0.553642;stroke-linecap:round;stroke-linejoin:round;stroke-opacity:0.997793;paint-order:stroke fill markers"
       d="m 771.78602,272.14356 c 0.0701,-2.35629 0.31075,-15.24987 0.43248,-23.16895 0.0574,-3.73291 0.12791,-7.06177 0.15674,-7.39746 l 0.0524,-0.61035 h 1.01762 1.01761 l -0.002,1.7334 c -10e-4,1.22936 -0.46274,30.82557 -0.48426,31.05468 -0.001,0.0134 -0.50568,0.0244 -1.12092,0.0244 h -1.11861 z"
       id="path79"
       transform="scale(0.26458333)" /><path
       style="fill:#000000;fill-opacity:1;stroke:#000000;stroke-width:0.553642;stroke-linecap:round;stroke-linejoin:round;stroke-opacity:0.997793;paint-order:stroke fill markers"
       d="m 772.41226,239.5785 c 1.6e-4,-1.19568 0.44331,-26.83921 0.53546,-30.98475 0.031,-1.39648 0.12184,-5.92285 0.20178,-10.05859 0.08,-4.13574 0.18818,-9.34326 0.24052,-11.57227 0.0523,-2.229 0.0954,-4.39331 0.0957,-4.80957 l 5.7e-4,-0.75683 h 1.02539 1.02539 l -1.6e-4,0.95214 c -9e-5,0.52369 -0.0652,4.07227 -0.14463,7.88575 -0.24212,11.62077 -0.63111,33.54918 -0.81333,45.84961 l -0.0673,4.54101 -1.0498,0.0277 -1.04981,0.0277 z"
       id="path80"
       transform="scale(0.26458333)" /><path
       style="fill:#000000;fill-opacity:1;stroke:#000000;stroke-width:0.195742;stroke-linecap:round;stroke-linejoin:round;stroke-opacity:0.997793;paint-order:stroke fill markers"
       d="m 773.4845,180.96306 c 1.7e-4,-0.18141 0.23737,-10.53327 0.37876,-16.52966 0.0575,-2.44017 0.11392,-4.62701 0.12529,-4.85963 l 0.0207,-0.42295 h 1.04383 c 0.57411,0 1.05031,0.006 1.05822,0.0143 0.008,0.008 -0.004,0.71871 -0.0264,1.5796 -0.0527,2.02051 -0.17368,7.00483 -0.21739,8.95395 -0.0187,0.83555 -0.0427,1.81438 -0.0533,2.17519 -0.0305,1.04246 -0.11423,4.82179 -0.15602,7.04344 -0.0211,1.12039 -0.0452,2.07204 -0.0537,2.11476 l -0.0153,0.0777 h -1.05241 -1.05241 z"
       id="path81"
       transform="scale(0.26458333)" /><path
       style="fill:#000000;fill-opacity:1;stroke:#000000;stroke-width:0.782968;stroke-linecap:round;stroke-linejoin:round;stroke-opacity:0.997793;paint-order:stroke fill markers"
       d="m 774.0826,157.131 c 0.0454,-1.04443 0.17551,-5.5657 0.2892,-10.04726 0.62471,-24.62658 1.75971,-55.71808 2.06832,-56.658317 0.0395,-0.120456 0.41816,-0.172633 1.25272,-0.172633 h 1.19605 l -0.0897,1.208434 c -0.6403,8.622096 -1.37749,24.171296 -1.94301,40.983196 -0.29867,8.87895 -0.76394,24.61517 -0.76462,25.86049 l -3.9e-4,0.72506 h -1.04551 -1.04551 z"
       id="path83"
       transform="scale(0.26458333)" /><path
       style="fill:#000000;fill-opacity:1;stroke:#000000;stroke-width:0.276821;stroke-linecap:round;stroke-linejoin:round;stroke-opacity:0.997793;paint-order:stroke fill markers"
       d="m 776.44103,89.763994 c 0.001,-0.304969 0.14359,-1.779769 0.36334,-3.760905 0.53683,-4.83988 1.07362,-11.363541 1.44174,-17.521643 0.0538,-0.899658 0.11083,-1.795044 0.12678,-1.989746 l 0.029,-0.354004 h 1.38744 c 0.76309,0 1.38743,0.01848 1.38743,0.04108 0,0.514519 -0.69482,7.687929 -1.22097,12.605407 -0.39469,3.688853 -0.73579,7.409041 -0.93387,10.185351 l -0.0596,0.834764 -1.12669,0.03295 c -0.61967,0.01812 -1.18711,0.04604 -1.26096,0.06204 -0.12573,0.02724 -0.13424,0.01863 -0.13368,-0.135291 z"
       id="path85"
       transform="scale(0.26458333)" /><path
       style="fill:#000000;fill-opacity:1;stroke:#000000;stroke-width:0.553642;stroke-linecap:round;stroke-linejoin:round;stroke-opacity:0.997793;paint-order:stroke fill markers"
       d="m 778.46822,65.454102 c 7.8e-4,-0.281983 0.043,-1.259766 0.0939,-2.172852 0.10247,-1.83952 0.26373,-5.48538 0.33907,-7.666015 0.13103,-3.792415 0.16273,-4.986525 0.25278,-9.521485 0.18177,-9.153828 0.39825,-12.646484 0.78386,-12.646484 0.2057,0 0.62438,1.53044 1.16213,4.248047 0.77607,3.921981 0.92869,6.221694 0.85437,12.87407 -0.0526,4.710551 -0.16934,7.312329 -0.55849,12.449659 -0.10707,1.413403 -0.19466,2.654858 -0.19466,2.758789 0,0.177852 -0.0804,0.188966 -1.36719,0.188966 h -1.36719 z"
       id="path88"
       transform="scale(0.26458333)" /><path
       d="m 195.20478,83.004314 c -6.39437,-0.0202 -10.80675,0.17168 -15.84251,0.0454"
       style="fill:#2594b7;fill-opacity:0;fill-rule:nonzero;stroke:#000000;stroke-width:1.24793;stroke-linecap:round;stroke-linejoin:round;stroke-dasharray:none;paint-order:stroke fill markers"
       id="path1-9" /><path
       style="fill:#f4e3d7;stroke:#000000;stroke-width:1.88977"
       d="m 60.546875,470.17061 c -2.148437,-0.13798 -4.960937,-0.42617 -6.25,-0.64042 l -2.34375,-0.38956 -0.07942,-43.94531 c -0.04829,-26.72243 -0.577909,-55.42725 -1.351351,-73.24219 -0.699564,-16.11329 -1.511481,-49.59961 -1.804261,-74.41407 l -0.532326,-45.11718 h 16.050647 16.050647 l 0.467077,27.53906 c 0.256892,15.14648 0.613558,68.75976 0.792589,119.14062 l 0.325512,91.60157 -8.709558,-0.14082 c -4.790257,-0.0774 -10.46737,-0.25372 -12.615808,-0.3917 z"
       id="path22"
       transform="scale(0.26458333)" /><path
       style="fill:#f4e3d7;stroke:#000000;stroke-width:1.88977"
       d="m 149.01964,405.37109 c -0.27777,-51.3972 -0.11298,-172.98035 0.23488,-173.29551 0.4122,-0.37346 22.57614,1.2162 28.29209,2.02919 l 1.94558,0.27672 0.26743,2.53582 c 0.14708,1.3947 0.39013,8.16082 0.5401,15.03582 0.29758,13.64179 -0.009,22.58392 -1.62782,47.5505 -0.88753,13.68434 -1.03084,19.32456 -1.32773,52.25418 -0.33099,36.71285 -0.6685,51.49763 -1.76832,77.46169 C 175.25913,436.69648 175,443.76103 175,444.9185 v 2.1045 l -3.61328,2.24022 c -6.23419,3.86518 -20.09671,10.69772 -21.70458,10.69772 -0.2264,0 -0.48074,-20.95814 -0.6625,-54.58985 z"
       id="path23"
       transform="scale(0.26458333)" /><path
       style="fill:#f4e3d7;stroke:#000000;stroke-width:1.88977"
       d="m 657.5904,452.73438 c -9.96218,-5.13091 -11.53764,-6.53929 -12.67193,-11.32813 -0.71244,-3.00781 -1.96496,-37.10937 -2.78337,-75.78125 -0.81841,-38.67187 -1.93634,-83.83016 -2.48427,-100.35175 l -0.99626,-30.03925 4.21194,-1.60138 c 2.31656,-0.88075 10.14272,-1.60137 17.39146,-1.60137 H 673.4375 V 345.3125 c 0,97.20897 -0.31714,113.28125 -2.23525,113.28125 -1.22939,0 -7.35472,-2.63672 -13.61185,-5.85937 z"
       id="path24"
       transform="scale(0.26458333)" /><path
       style="fill:#f4e3d7;stroke:#000000;stroke-width:1.88977"
       d="m 741.77811,435.03218 c -0.53653,-30.8337 -0.0568,-200.84205 0.56852,-201.46735 0.14119,-0.14119 6.54739,-0.36822 14.236,-0.50452 l 13.97929,-0.24781 -0.50249,47.65625 c -0.27638,26.21094 -0.94773,55.74219 -1.4919,65.625 -1.06127,19.27391 -1.31978,103.94063 -0.35107,114.98116 l 0.56044,6.38742 -4.11501,0.4279 c -2.26326,0.23534 -8.20389,0.64501 -13.2014,0.91039 l -9.08639,0.48248 z"
       id="path25"
       transform="scale(0.26458333)"
       sodipodi:nodetypes="ssscssscsscs" /></g><metadata
     id="metadata66"><rdf:RDF><cc:Work
         rdf:about=""><dc:title>Retro vettorizzato</dc:title></cc:Work></rdf:RDF></metadata></svg>
