<?xml version="1.0" encoding="UTF-8" standalone="no"?>
<!-- Created with Inkscape (http://www.inkscape.org/) -->

<svg
   width="210mm"
   height="297mm"
   viewBox="0 0 210 297"
   version="1.1"
   id="svg1"
   xml:space="preserve"
   inkscape:version="1.3.2 (091e20e, 2023-11-25, custom)"
   sodipodi:docname="Braccia vettoriale.svg"
   inkscape:export-filename="Retro.png"
   inkscape:export-xdpi="96"
   inkscape:export-ydpi="96"
   xmlns:inkscape="http://www.inkscape.org/namespaces/inkscape"
   xmlns:sodipodi="http://sodipodi.sourceforge.net/DTD/sodipodi-0.dtd"
   xmlns="http://www.w3.org/2000/svg"
   xmlns:svg="http://www.w3.org/2000/svg"
   xmlns:rdf="http://www.w3.org/1999/02/22-rdf-syntax-ns#"
   xmlns:cc="http://creativecommons.org/ns#"
   xmlns:dc="http://purl.org/dc/elements/1.1/"><title
     id="title66">Retro vettorizzato</title><sodipodi:namedview
     id="namedview1"
     pagecolor="#ffffff"
     bordercolor="#000000"
     borderopacity="0.25"
     inkscape:showpageshadow="2"
     inkscape:pageopacity="0.0"
     inkscape:pagecheckerboard="0"
     inkscape:deskcolor="#d1d1d1"
     inkscape:document-units="mm"
     inkscape:zoom="0.16"
     inkscape:cx="1471.875"
     inkscape:cy="153.125"
     inkscape:window-width="1440"
     inkscape:window-height="829"
     inkscape:window-x="-8"
     inkscape:window-y="-8"
     inkscape:window-maximized="1"
     inkscape:current-layer="layer1"
     inkscape:export-bgcolor="#e5e5e500"
     showguides="true"><sodipodi:guide
       position="258.41622,-24.558651"
       orientation="0,-1"
       id="guide44"
       inkscape:locked="false" /></sodipodi:namedview><defs
     id="defs1" /><g
     inkscape:label="Livello 1"
     inkscape:groupmode="layer"
     id="layer1"><path
       style="fill:#2594b7;fill-opacity:0;fill-rule:nonzero;stroke:#000000;stroke-width:1.24793;stroke-linecap:round;stroke-linejoin:round;stroke-dasharray:none;paint-order:stroke fill markers"
       d="m 168.46991,61.003523 c -3.71429,50.719787 -6.52886,103.113097 9.16139,152.242407 4.00128,19.80704 1.555,40.2402 -1.04221,60.07281 -0.81111,5.57072 -1.72635,11.1256 -2.67738,16.67379 L 42.734904,290.27456 C 41.783875,284.72637 40.868631,279.1715 40.05752,273.60078 37.46031,253.76817 35.014037,233.335 39.015314,213.52797 54.705565,164.39865 51.890996,112.00534 48.176704,61.285552"
       id="path40-2"
       sodipodi:nodetypes="cccccccc"
       inkscape:export-filename=".\braccio.png"
       inkscape:export-xdpi="96"
       inkscape:export-ydpi="96" /><path
       d="M 151.65862,232.20412"
       style="fill:#2594b7;fill-opacity:0;fill-rule:nonzero;stroke:#000000;stroke-width:1.24793;stroke-linecap:round;stroke-linejoin:round;stroke-dasharray:none;paint-order:stroke fill markers"
       id="path1-0" /><path
       style="fill:#2594b7;fill-opacity:0;fill-rule:nonzero;stroke:#000000;stroke-width:1.24793;stroke-linecap:round;stroke-linejoin:round;stroke-dasharray:none;paint-order:stroke fill markers"
       d="m 13.220625,124.87275 c 11.380911,1.06546 23.728508,0.53787 33.501961,-6.09095"
       id="path82" /><path
       style="fill:#2594b7;fill-opacity:0;fill-rule:nonzero;stroke:#000000;stroke-width:1.24793;stroke-linecap:round;stroke-linejoin:round;stroke-dasharray:none;paint-order:stroke fill markers"
       d="m 13.64783,104.50913 c 11.546607,-0.49524 23.218428,2.4047 33.853586,-3.36834"
       id="path84"
       sodipodi:nodetypes="cc" /><path
       style="fill:#2594b7;fill-opacity:0;fill-rule:nonzero;stroke:#000000;stroke-width:1.24793;stroke-linecap:round;stroke-linejoin:round;stroke-dasharray:none;paint-order:stroke fill markers"
       d="m 13.088228,82.503108 c 12.082193,4.59e-4 22.749719,1.517305 34.61305,-1.38348"
       id="path86"
       sodipodi:nodetypes="cc" /><path
       style="fill:#2594b7;fill-opacity:0;fill-rule:nonzero;stroke:#000000;stroke-width:1.24793;stroke-linecap:round;stroke-linejoin:round;stroke-dasharray:none;paint-order:stroke fill markers"
       d="m 13.017553,60.745224 c 11.674218,0.501462 23.410817,-0.95172 35.03596,0.664053"
       id="path87" /><path
       style="fill:#2594b7;fill-opacity:0;fill-rule:nonzero;stroke:#000000;stroke-width:1.24793;stroke-linecap:round;stroke-linejoin:round;stroke-dasharray:none;paint-order:stroke fill markers"
       d="m 168.55662,61.066971 c -1.01181,10.100088 0.68886,19.087195 0.54094,28.95581 -1.28305,39.745309 7.36113,66.751849 15.42653,98.663879 43.83934,154.62347 15.76085,-41.43972 19.48914,-94.919873 1.26517,-25.65774 -0.73985,-51.261522 2.52303,-76.864696 2.93798,-26.1568226 -26.92951,-31.309413 -45.99136,-35.478182 L 56.123558,-18.339243 C 37.061701,-14.170474 7.1942148,-9.0178835 10.132192,17.138939 13.395073,42.742113 11.390054,68.345895 12.655224,94.003635 15.812794,158.03943 2.5536926,223.77622 -5.6077795,257.09563 40.444676,251.16355 47.944868,134.54877 47.570893,90.259639 47.422979,80.391024 49.123647,71.403917 48.111836,61.303829"
       id="path38-1"
       sodipodi:nodetypes="cccsccccsccc" /><path
       style="fill:#2594b7;fill-opacity:0;fill-rule:nonzero;stroke:#000000;stroke-width:1.24793;stroke-linecap:round;stroke-linejoin:round;stroke-dasharray:none;paint-order:stroke fill markers"
       d="m 203.29802,124.46453 c -11.38366,1.08942 -23.71784,0.5093 -33.50197,-6.09095"
       id="path82-3" /><path
       style="fill:#2594b7;fill-opacity:0;fill-rule:nonzero;stroke:#000000;stroke-width:1.24793;stroke-linecap:round;stroke-linejoin:round;stroke-dasharray:none;paint-order:stroke fill markers"
       d="m 202.71024,104.65002 c -11.54661,-0.49524 -23.03572,2.45951 -33.67088,-3.31353"
       id="path84-4"
       sodipodi:nodetypes="cc" /><path
       style="fill:#2594b7;fill-opacity:0;fill-rule:nonzero;stroke:#000000;stroke-width:1.24793;stroke-linecap:round;stroke-linejoin:round;stroke-dasharray:none;paint-order:stroke fill markers"
       d="m 203.26984,82.644004 c -12.08219,4.5e-4 -22.45739,1.736546 -34.32072,-1.164244"
       id="path86-4"
       sodipodi:nodetypes="cc" /><path
       style="fill:#2594b7;fill-opacity:0;fill-rule:nonzero;stroke:#000000;stroke-width:1.24793;stroke-linecap:round;stroke-linejoin:round;stroke-dasharray:none;paint-order:stroke fill markers"
       d="m 203.34052,60.886115 c -11.67422,0.501462 -23.26466,-1.463291 -34.8898,0.152482"
       id="path87-8"
       sodipodi:nodetypes="cc" /><path
       style="fill:#2594b7;fill-opacity:0;fill-rule:nonzero;stroke:#000000;stroke-width:1.37863;stroke-linecap:round;stroke-linejoin:round;stroke-dasharray:none;paint-order:stroke fill markers"
       d="m 22.090978,61.105267 0.275259,23.944743 c -0.0063,-0.811912 -0.01264,5.942623 -0.01896,17.35255 l 0.08416,22.86071"
       id="path90"
       sodipodi:nodetypes="cccc" /><path
       style="fill:#2594b7;fill-opacity:0;fill-rule:nonzero;stroke:#000000;stroke-width:1.39476;stroke-linecap:round;stroke-linejoin:round;stroke-dasharray:none;paint-order:stroke fill markers"
       d="m 38.742743,60.897992 c -0.25606,20.63737 0.01479,61.910248 0.01479,61.910248"
       id="path92"
       sodipodi:nodetypes="cc" /><path
       style="fill:#ffff00;fill-opacity:0;fill-rule:nonzero;stroke:#000000;stroke-width:1.37863;stroke-linecap:round;stroke-linejoin:round;stroke-dasharray:none;paint-order:stroke fill markers"
       d="m 195.64769,61.195411 c -0.35147,21.177329 -0.32504,42.359529 -0.0821,63.537889"
       id="path90-6" /><path
       style="fill:#ffff00;fill-opacity:0;fill-rule:nonzero;stroke:#000000;stroke-width:1.39476;stroke-linecap:round;stroke-linejoin:round;stroke-dasharray:none;paint-order:stroke fill markers"
       d="m 178.99593,60.988136 c 0.2081,20.567232 0.11701,41.135894 0.0369,61.703544"
       id="path92-2" /><path
       style="fill:#ffff00;fill-opacity:0;stroke:none;stroke-width:6.26374;stroke-linecap:round;stroke-linejoin:round;paint-order:stroke fill markers"
       d="m 87.46015,292.51019 c -0.396948,-9.5708 -0.723379,-26.92881 -0.725403,-38.57335 l -0.0037,-21.1719 23.424043,-0.37276 c 12.88322,-0.20502 25.56142,-0.19841 28.17378,0.0147 l 4.74975,0.38746 v 38.55865 38.55865 H 115.63026 88.181872 Z"
       id="path1"
       transform="scale(0.26458333)" /><path
       style="fill:#ffff00;fill-opacity:0;stroke:none;stroke-width:6.26374;stroke-linecap:round;stroke-linejoin:round;paint-order:stroke fill markers"
       d="m 87.46015,292.51019 c -0.396948,-9.5708 -0.723379,-26.92881 -0.725403,-38.57335 l -0.0037,-21.1719 23.424043,-0.37276 c 12.88322,-0.20502 25.56142,-0.19841 28.17378,0.0147 l 4.74975,0.38746 v 38.55865 38.55865 H 115.63026 88.181872 Z"
       id="path2"
       transform="scale(0.26458333)" /><path
       style="fill:#ffff00;fill-opacity:0;stroke:none;stroke-width:12.5275;stroke-linecap:round;stroke-linejoin:round;paint-order:stroke fill markers"
       d="m 88.756633,308.99093 c -0.810227,-0.81022 -1.47314,-18.21168 -1.47314,-38.6699 v -37.19676 h 27.621357 27.62136 v 37.30732 c 0,36.82116 -0.0648,37.32469 -4.97184,38.63973 -6.78169,1.81742 -46.966126,1.75122 -48.797737,-0.0804 z"
       id="path3"
       transform="scale(0.26458333)" /><path
       style="fill:#ffff00;fill-opacity:0;stroke:none;stroke-width:12.5275;stroke-linecap:round;stroke-linejoin:round;paint-order:stroke fill markers"
       d="m 88.756633,308.99093 c -0.810227,-0.81022 -1.47314,-18.21168 -1.47314,-38.6699 v -37.19676 h 27.621357 27.62136 v 37.30732 c 0,36.82116 -0.0648,37.32469 -4.97184,38.63973 -6.78169,1.81742 -46.966126,1.75122 -48.797737,-0.0804 z"
       id="path4"
       transform="scale(0.26458333)" /><path
       style="fill:#ffff00;fill-opacity:0;stroke:none;stroke-width:12.5275;stroke-linecap:round;stroke-linejoin:round;paint-order:stroke fill markers"
       d="m 87.283493,354.85255 v -37.50677 l 27.675177,-0.67872 27.67518,-0.67872 -0.60624,37.56505 -0.60625,37.56505 -27.06894,0.62044 -27.068927,0.62044 z"
       id="path5"
       transform="scale(0.26458333)" /><path
       style="fill:#ffff00;fill-opacity:1;stroke:none;stroke-width:12.5275;stroke-linecap:round;stroke-linejoin:round;paint-order:stroke fill markers"
       d="m 88.731739,456.25437 c -0.796535,-7.62084 -1.448246,-23.65389 -1.448246,-35.62901 v -21.77294 h 27.682027 27.68203 l -0.61309,31.39396 -0.6131,31.39397 -9.63328,2.7863 c -5.2983,1.53247 -16.82761,3.43824 -25.62068,4.23505 l -15.987415,1.44874 z"
       id="path6"
       transform="scale(0.26458333)" /><path
       style="fill:#ffff00;fill-opacity:1;stroke:none;stroke-width:8.85827;stroke-linecap:round;stroke-linejoin:round;paint-order:stroke fill markers"
       d="m 88.28125,354.75717 v -38.21158 l 27.34568,-0.4603 27.34568,-0.46029 -0.002,37.67824 -0.002,37.67825 -7.24933,0.99363 c -3.98713,0.5465 -16.29182,0.99363 -27.34375,0.99363 H 88.28125 Z"
       id="path7"
       transform="scale(0.26458333)" /><path
       style="fill:#ffff00;fill-opacity:1;stroke:none;stroke-width:8.85827;stroke-linecap:round;stroke-linejoin:round;paint-order:stroke fill markers"
       d="m 87.74789,292.61399 c -0.558211,-9.68769 -1.018126,-26.84251 -1.022034,-38.1218 l -0.0071,-20.50781 4.882813,-0.97657 c 2.685546,-0.53711 15.354081,-0.97656 28.152301,-0.97656 h 23.26948 l -0.41792,38.67188 -0.41792,38.67187 -26.71234,0.42649 -26.712346,0.42649 z"
       id="path8"
       transform="scale(0.26458333)" /><path
       style="fill:#ffff00;fill-opacity:1;stroke:none;stroke-width:8.85827;stroke-linecap:round;stroke-linejoin:round;paint-order:stroke fill markers"
       d="m 683.20313,310.73879 c -2.50933,-0.74487 -2.73438,-4.01722 -2.73438,-39.75961 v -38.94793 h 18.5208 c 10.18643,0 22.6669,0.43322 27.73437,0.96272 l 9.21358,0.96272 -0.54608,37.70916 c -0.30034,20.74003 -0.65191,37.81941 -0.78125,37.95416 -0.71483,0.74475 -49.11834,1.79816 -51.40704,1.11878 z"
       id="path9"
       transform="scale(0.26458333)" /><path
       style="fill:#ffff00;fill-opacity:1;stroke:none;stroke-width:8.85827;stroke-linecap:round;stroke-linejoin:round;paint-order:stroke fill markers"
       d="m 680.47648,355.07813 0.008,-37.89063 27.33601,-0.39821 27.33602,-0.39822 v 38.28884 38.28884 H 707.8125 680.46875 Z"
       id="path10"
       transform="scale(0.26458333)" /><path
       style="fill:#ffff00;fill-opacity:1;stroke:none;stroke-width:8.85827;stroke-linecap:round;stroke-linejoin:round;paint-order:stroke fill markers"
       d="m 719.53125,468.46736 c -8.97025,-0.66076 -25.63755,-3.3345 -33.20312,-5.32638 l -5.85938,-1.54268 v -31.18977 -31.18978 h 27.34375 27.34375 v 35.15625 35.15625 l -4.29687,-0.27298 c -2.36329,-0.15014 -7.46094,-0.50605 -11.32813,-0.79091 z"
       id="path11"
       transform="scale(0.26458333)" /><path
       style="fill:#c8b7b7;fill-opacity:1;stroke:none;stroke-width:17.7165;stroke-linecap:round;stroke-linejoin:round;paint-order:stroke fill markers"
       d="M 161.38366,1072.6563 C 140.00614,946.91081 138.81315,853.27741 157.73099,785.97272 175.62961,722.29413 185.39073,667.23375 192.0853,592.1875 c 6.07567,-68.10828 3.68795,-237.21169 -4.8206,-341.40625 L 185.28699,226.5625 H 116.86225 48.4375 L 48.442,178.90625 C 48.4445,152.69531 46.828491,112.95105 44.850919,90.585666 40.489858,41.264119 42.538299,25.145469 55.64737,5.6312219 74.163863,-21.932544 102.42273,-37.148716 168.75,-55.269618 l 34.375,-9.391402 197.09763,-1.659096 c 196.17887,-1.651363 197.24925,-1.62611 229.6255,5.417562 81.3939,17.707784 124.62,41.951451 140.46309,78.779723 6.11487,14.214387 6.7295,19.594322 5.07916,44.459528 -1.03266,15.558569 -2.7926,58.866763 -3.911,96.240423 l -2.0335,67.95213 -66.48235,-0.76463 c -36.56531,-0.42054 -67.24244,-0.01 -68.17137,0.91298 -9.09588,9.0344 -13.76932,328.46465 -5.7591,393.6349 6.62219,53.87731 15.74947,101.84469 29.09441,152.90225 15.63025,59.801 19.64047,102.2055 15.33578,162.16156 -3.06319,42.66388 -8.84156,91.29819 -15.93941,134.15499 l -3.75228,22.6562 H 409.23781 164.70409 Z"
       id="path12"
       transform="scale(0.26458333)" /><path
       style="fill:#c8b7b7;fill-opacity:1;stroke:none;stroke-width:17.7165;stroke-linecap:round;stroke-linejoin:round;paint-order:stroke fill markers"
       d="M -13.069262,957.03722 C -12.072143,951.448 -6.2555084,924.01909 -0.1434075,896.08406 27.318941,770.56897 51.5625,585.29514 51.5625,500.93783 V 476.5625 l 30.46875,-0.0462 c 31.45922,-0.0477 62.76179,-5.66769 79.3516,-14.24661 5.23075,-2.70493 9.96636,-4.46216 10.52357,-3.90495 1.53987,1.53987 -4.09342,70.73534 -9.62264,118.19775 -25.79105,221.38878 -83.766558,357.68372 -164.2218087,386.07 l -12.9441783,4.56697 z"
       id="path13"
       transform="scale(0.26458333)" /><path
       style="fill:#c8b7b7;fill-opacity:1;stroke:none;stroke-width:17.7165;stroke-linecap:round;stroke-linejoin:round;paint-order:stroke fill markers"
       d="M 772.47695,919.23013 C 741.70098,872.26006 648.4375,531.82984 648.4375,466.46151 c 0,-7.67362 0.96494,-8.90873 5.46875,-6.99992 28.77191,12.19411 65.2537,18.54685 93.50111,16.28177 l 19.28236,-1.5462 1.81789,25.40142 c 7.54133,105.37559 17.83687,302.97042 18.22566,349.79205 0.5995,72.19753 -2.56232,87.68678 -14.25632,69.8395 z"
       id="path14"
       transform="scale(0.26458333)" /><path
       style="fill:#c8b7b7;fill-opacity:1;stroke:none;stroke-width:12.5275;stroke-linecap:round;stroke-linejoin:round;paint-order:stroke fill markers"
       d="m 656.01004,307.81693 -13.53169,-2.08401 -1.38384,-10.09623 c -0.76111,-5.55293 -1.38384,-21.88988 -1.38384,-36.30433 v -26.20809 l 8.2864,-0.0243 c 4.55753,-0.0134 12.01529,-0.64067 16.57282,-1.39398 l 8.28641,-1.36966 v 40.06388 c 0,22.03514 -0.74578,39.93718 -1.65728,39.78231 -0.91151,-0.15486 -7.74655,-1.21937 -15.18898,-2.36557 z"
       id="path15"
       transform="scale(0.26458333)" /><path
       style="fill:#c8b7b7;fill-opacity:1;stroke:none;stroke-width:12.5275;stroke-linecap:round;stroke-linejoin:round;paint-order:stroke fill markers"
       d="m 653.52135,385.3246 -11.60098,-4.45871 v -34.27163 -34.27163 l 6.0767,1.16215 c 3.34219,0.63918 10.30277,1.79996 15.46796,2.57951 l 9.39127,1.41736 v 36.26597 c 0,41.28995 1.131,39.44285 -19.33495,31.57698 z"
       id="path16"
       transform="scale(0.26458333)" /><path
       style="fill:#c8b7b7;fill-opacity:1;stroke:none;stroke-width:12.5275;stroke-linecap:round;stroke-linejoin:round;paint-order:stroke fill markers"
       d="m 657.85799,452.35828 c -13.31893,-6.71132 -12.95169,-5.74575 -14.78394,-38.87103 l -1.32944,-24.03507 5.05972,1.53962 c 2.78286,0.8468 9.53439,2.77693 15.00342,4.28919 l 9.94369,2.74957 0.61479,30.242 c 0.33813,16.6331 -0.15906,30.18149 -1.10486,30.10754 -0.9458,-0.074 -6.97732,-2.78377 -13.40338,-6.02182 z"
       id="path17"
       transform="scale(0.26458333)" /><path
       style="fill:#c8b7b7;fill-opacity:1;stroke:none;stroke-width:12.5275;stroke-linecap:round;stroke-linejoin:round;paint-order:stroke fill markers"
       d="m 789.5681,880.56891 c 1.01756,-44.77501 -1.12648,-99.00416 -8.51806,-215.44659 -4.01144,-63.19374 -10.95368,-183.96957 -10.96269,-190.72071 -0.003,-2.27472 -4.38575,-2.60967 -20.44368,-1.56235 -11.24189,0.73322 -26.9032,0.36367 -34.80291,-0.8212 l -14.3631,-2.15431 18.23009,0.41847 18.2301,0.4185 v -36.73627 -36.73628 l -28.17379,0.20623 c -16.45117,0.12043 -28.84927,1.14793 -29.79723,2.46942 -0.89289,1.24473 -1.63867,15.85287 -1.65728,32.46252 -0.0248,22.11817 0.7053,30.49758 2.7283,31.31389 1.51917,0.613 0.7734,1.19349 -1.65728,1.28999 -4.34694,0.17255 -4.40984,-1.05262 -3.83527,-74.70378 l 0.58414,-74.8792 -7.21327,-1.2452 c -3.9673,-0.68485 -11.93652,-1.90547 -17.70939,-2.71248 l -10.49611,-1.46729 v 36.52695 c 0,27.154 0.70877,36.81295 2.76213,37.6415 2.13918,0.86318 2.11507,1.15389 -0.10692,1.28899 -3.96077,0.24084 -1.25379,54.42223 3.06408,61.32881 2.00544,3.20777 2.21586,5.06984 0.63256,5.59761 -1.67672,0.55892 -1.58705,7.03143 0.30574,22.069 1.47306,11.70299 2.24007,22.59281 1.70447,24.19963 -0.5356,1.60681 -2.77331,-11.97883 -4.97268,-30.19033 -2.67349,-22.13741 -4.45346,-57.40856 -5.3705,-106.41959 -0.75441,-40.31927 -1.9795,-73.91562 -2.72242,-74.65854 -1.3492,-1.34921 -3.2869,28.49322 -6.45105,99.35272 -1.63014,36.50602 -1.65244,36.19454 -0.7909,-11.04854 0.48759,-26.73748 2.36596,-68.99816 4.17415,-93.91262 1.80819,-24.91447 3.30209,-46.94638 3.31977,-48.9598 0.047,-5.34647 30.13353,-6.87327 88.4205,-4.48707 26.1298,1.06973 40.79674,2.09764 32.5932,2.28426 l -14.91553,0.33931 -0.46036,29.83107 c -0.2532,16.40708 -0.50179,34.48902 -0.55243,40.18209 l -0.0921,10.35103 14.36311,-0.34642 c 10.10165,-0.24364 13.05189,0.24501 9.94369,1.64705 -2.43068,1.09641 -9.14267,2.06338 -14.91554,2.14879 l -10.49611,0.15532 v 39.77476 39.77475 h 14.05923 14.05922 l 1.57911,-19.33495 c 0.86851,-10.63422 2.52355,-76.01398 3.67788,-145.28835 1.15432,-69.27436 3.00492,-133.411158 4.11243,-142.526207 1.10751,-9.115048 2.18408,-26.01932 2.39238,-37.565047 0.33801,-18.73568 0.58835,-19.923339 2.32888,-11.048544 1.30932,6.676093 0.83013,20.109545 -1.45822,40.879611 -2.38478,21.645327 -4.0136,71.644477 -5.42365,166.487687 -1.10841,74.55346 -2.61581,137.44387 -3.34979,139.75644 -2.03443,6.40992 2.79184,121.34891 10.01244,238.44907 3.55965,57.72864 7.49413,124.35135 8.7433,148.05048 2.61434,49.59903 2.8256,129.55279 0.37659,142.52621 -0.91769,4.86136 -1.22785,-10.55136 -0.68926,-34.25049 z M 769.32629,444.70387 c -0.78783,-13.67257 -1.43694,-30.07966 -1.44247,-36.46019 l -0.01,-11.60097 h -14.69638 -14.69638 l 1.42669,21.54466 c 0.78469,11.84956 1.43185,28.25665 1.43813,36.46019 l 0.0114,14.91554 h 14.70072 14.70073 z m -32.38844,-90.04562 v -39.77476 h -28.72621 -28.72622 v 39.77476 39.77475 h 28.72622 28.72621 z M 675.06601,270.4002 v -42.2736 l -8.28641,1.36966 c -4.55753,0.75331 -13.12441,1.3806 -19.03751,1.39398 l -10.7511,0.0243 0.85831,37.4318 c 0.47207,20.58748 1.36945,37.94295 1.99418,38.56768 0.9314,0.93139 21.4501,4.39982 32.46039,5.487 2.12296,0.20963 2.76214,-9.50966 2.76214,-42.00084 z m 61.87184,1.39397 v -40.87961 l -18.2301,-0.0192 c -10.02655,-0.0106 -23.45053,-0.64625 -29.83107,-1.41265 l -11.60097,-1.39344 0.01,17.43304 c 0.006,9.58817 0.65464,28.61968 1.44248,42.29226 l 1.43242,24.85922 h 28.38859 28.3886 z"
       id="path18"
       transform="scale(0.26458333)" /><path
       style="fill:#c8b7b7;fill-opacity:1;stroke:none;stroke-width:12.5275;stroke-linecap:round;stroke-linejoin:round;paint-order:stroke fill markers"
       d="m 743.56697,456.64859 c 0,-5.88763 -0.64829,-21.30035 -1.44065,-34.25048 l -1.44066,-23.54569 h 12.4892 12.4892 l 0.0101,9.39126 c 0.006,5.16519 0.65464,20.57791 1.44247,34.25049 l 1.43243,24.85922 h -12.49102 -12.49102 z"
       id="path19"
       transform="scale(0.26458333)" /><path
       style="fill:#c8b7b7;fill-opacity:1;stroke:none;stroke-width:12.5275;stroke-linecap:round;stroke-linejoin:round;paint-order:stroke fill markers"
       d="m 741.35727,354.94737 v -37.27593 l 8.2864,-1.36965 c 19.17177,-3.1689 18.23202,-4.32131 18.21439,22.33607 -0.009,13.0649 -0.64961,30.46636 -1.42439,38.6699 l -1.40868,14.91553 h -11.83386 -11.83386 z"
       id="path20"
       transform="scale(0.26458333)" /><path
       style="fill:#c8b7b7;fill-opacity:1;stroke:none;stroke-width:12.5275;stroke-linecap:round;stroke-linejoin:round;paint-order:stroke fill markers"
       d="m 742.09258,292.60711 c 0.79635,-10.23178 1.45387,-27.80114 1.46115,-39.04304 l 0.0132,-20.4398 h 13.25826 13.25825 v 37.56504 37.56505 h -10.86782 c -5.9773,0 -12.60103,0.6651 -14.7194,1.47799 -3.54139,1.35896 -3.73497,-0.0202 -2.40368,-17.12524 z"
       id="path21"
       transform="scale(0.26458333)" /><path
       style="fill:#c8b7b7;fill-opacity:1;stroke:none;stroke-width:12.5275;stroke-linecap:round;stroke-linejoin:round;paint-order:stroke fill markers"
       d="m 149.15534,270.62833 v -38.11787 l 13.56813,1.23031 c 7.67937,0.69635 14.378,2.50787 15.43412,4.1739 2.25456,3.55654 2.42128,18.59702 0.50535,45.5889 -1.59099,22.4139 0.48927,20.07925 -21.2212,23.81629 l -8.2864,1.42634 z"
       id="path22"
       transform="scale(0.26458333)" /><path
       style="fill:#c8b7b7;fill-opacity:1;stroke:none;stroke-width:12.5275;stroke-linecap:round;stroke-linejoin:round;paint-order:stroke fill markers"
       d="m 180.44016,348.02912 c 0,-3.03835 0.50155,-4.28131 1.11455,-2.76214 0.613,1.51918 0.613,4.0051 0,5.52427 -0.613,1.51918 -1.11455,0.27622 -1.11455,-2.76213 z"
       id="path23"
       transform="scale(0.26458333)" /><path
       style="fill:#c8b7b7;fill-opacity:1;stroke:none;stroke-width:12.5275;stroke-linecap:round;stroke-linejoin:round;paint-order:stroke fill markers"
       d="m 149.15534,352.5991 v -37.10599 l 13.81068,-2.26016 c 7.59587,-1.24309 13.81068,-2.12603 13.81068,-1.96209 0,0.16393 -0.31725,15.86718 -0.70499,34.89609 l -0.705,34.59802 -5.92413,2.43128 c -3.25828,1.3372 -9.15584,3.34872 -13.10569,4.47005 l -7.18155,2.03878 z"
       id="path24"
       transform="scale(0.26458333)" /><path
       style="fill:#c8b7b7;fill-opacity:1;stroke:none;stroke-width:12.5275;stroke-linecap:round;stroke-linejoin:round;paint-order:stroke fill markers"
       d="m 149.15534,427.8876 v -30.62694 l 13.25825,-4.34697 13.25825,-4.34696 v 15.86724 c 0,8.72699 -0.64491,22.03743 -1.43314,29.57877 l -1.43314,13.71153 -10.6468,5.39514 c -5.85574,2.96733 -11.17704,5.39514 -11.82511,5.39514 -0.64807,0 -1.17831,-13.78212 -1.17831,-30.62695 z"
       id="path25"
       transform="scale(0.26458333)" /><path
       style="fill:#c8b7b7;fill-opacity:1;stroke:none;stroke-width:12.5275;stroke-linecap:round;stroke-linejoin:round;paint-order:stroke fill markers"
       d="m 51.928154,434.20776 v -35.35534 h 14.363107 14.363106 v 35.35534 35.35534 H 66.291261 51.928154 Z"
       id="path26"
       transform="scale(0.26458333)" /><path
       style="fill:#c8b7b7;fill-opacity:1;stroke:none;stroke-width:12.5275;stroke-linecap:round;stroke-linejoin:round;paint-order:stroke fill markers"
       d="m 51.928154,373.78024 c 0,-10.14369 -0.646084,-27.54514 -1.435742,-38.66991 L 49.05667,314.88349 h 15.798849 15.798848 v 38.6699 38.6699 H 66.291261 51.928154 Z"
       id="path27"
       transform="scale(0.26458333)" /><path
       style="fill:#ffe6d5;fill-opacity:1;stroke:none;stroke-width:12.5275;stroke-linecap:round;stroke-linejoin:round;paint-order:stroke fill markers"
       d="m 49.718446,270.68931 v -37.56504 h 15.46796 15.467961 v 37.56504 37.56505 H 65.186406 49.718446 Z"
       id="path28"
       transform="scale(0.26458333)" /><path
       style="fill:#f4e3d7;fill-opacity:1;stroke:none;stroke-width:8.85827;stroke-linecap:round;stroke-linejoin:round;paint-order:stroke fill markers"
       d="M 163.41629,1080.0781 C 148.503,990.4755 142.98415,923.90598 146.04037,870.48578 c 2.15068,-37.59225 4.87623,-54.3425 15.81773,-97.21005 25.67502,-100.59173 34.19549,-173.51118 34.21381,-292.80698 0.0118,-76.66784 -2.83204,-157.75819 -8.04138,-229.29687 l -1.8489,-25.39063 H 117.93216 49.682698 L 48.769014,172.26563 C 48.266488,142.83203 46.731945,103.82444 45.358917,85.582084 41.849416,38.95405 43.885294,24.827028 56.870023,5.7061672 66.097636,-7.8820953 80.333089,-19.937947 97.511117,-28.712338 116.16812,-38.242173 127.57035,-42.36702 167.96875,-54.200936 L 200,-63.58386 343.75,-65.090374 c 187.50334,-1.965054 257.07967,-1.192639 277.34375,3.078985 51.9503,10.951009 90.03555,24.620216 114.11128,40.955775 10.98924,7.45628 26.05436,23.5697921 31.54042,33.735331 8.41621,15.595022 9.32241,22.749924 7.49744,59.195283 -2.36689,47.26777 -4.68855,114.22439 -4.70095,135.57558 l -0.0107,18.38806 -67.05528,-0.41931 c -36.88041,-0.23063 -67.46906,-0.006 -67.97478,0.49815 -1.86805,1.86397 -3.98702,18.5271 -5.54616,43.61377 -4.33228,69.70692 -6.03339,246.24903 -3.01594,312.99684 2.45804,54.37264 12.08525,113.23824 31.02743,189.71679 9.73657,39.31123 13.33112,59.1685 15.77223,87.13012 3.86952,44.32341 -1.53208,117.0872 -15.22387,205.0781 l -4.19404,26.9532 H 409.31128 165.30172 Z"
       id="path29"
       transform="scale(0.26458333)" /><path
       style="fill:#f4e3d7;fill-opacity:1;stroke:none;stroke-width:8.85827;stroke-linecap:round;stroke-linejoin:round;paint-order:stroke fill markers"
       d="M 776.30156,922.34895 C 756.69703,901.00717 696.76205,705.5832 664.05143,556.34625 c -12.3038,-56.13417 -17.84182,-96.19 -13.29898,-96.19 1.10091,0 8.06167,2.07012 15.46835,4.60026 25.84216,8.82776 43.36801,11.57539 73.23233,11.48109 23.14421,-0.0731 26.95312,0.25145 26.95312,2.29648 0,1.30987 1.3965,22.84744 3.10332,47.86125 8.24547,120.83853 15.91326,279.68012 16.07399,332.97967 0.13108,43.46527 -0.91093,59.64602 -4.12407,64.04025 -1.6708,2.28494 -2.1753,2.18066 -5.15793,-1.0663 z"
       id="path30"
       transform="scale(0.26458333)" /><path
       style="fill:#f4e3d7;fill-opacity:1;stroke:none;stroke-width:8.85827;stroke-linecap:round;stroke-linejoin:round;paint-order:stroke fill markers"
       d="M -12.604841,959.20794 C -11.995401,955.86231 -7.0221442,932.03125 -1.5531597,906.25 28.404947,765.02498 49.076947,612.81973 51.842988,513.10112 l 0.980176,-35.33638 29.838417,-0.85271 c 39.170139,-1.11939 62.882149,-5.55316 82.572799,-15.43981 l 5.85937,-2.94198 v 7.75007 c 0,10.30528 -3.97686,57.82033 -7.9225,94.65719 -20.58258,192.16052 -65.770542,324.81495 -129.222144,379.34636 -10.096861,8.67741 -33.71328256,21.79556 -43.1493127,23.96803 -4.5068363,1.03763 -4.5112653,1.03106 -3.4046343,-5.04395 z"
       id="path31"
       transform="scale(0.26458333)" /><path
       style="fill:#f4e3d7;fill-opacity:1;stroke:none;stroke-width:17.7165;stroke-linecap:round;stroke-linejoin:round;paint-order:stroke fill markers"
       d=""
       id="path32"
       transform="scale(0.26458333)" /><path
       style="fill:#f4e3d7;fill-opacity:1;stroke:none;stroke-width:17.7165;stroke-linecap:round;stroke-linejoin:round;paint-order:stroke fill markers"
       d="m 53.58355,368.27851 c -1.111577,-13.14995 -2.02105,-30.02495 -2.02105,-37.5 V 317.1875 H 65.625 79.6875 v 37.5 37.5 H 67.64605 55.6046 Z"
       id="path33"
       transform="scale(0.26458333)" /><path
       style="fill:#f4e3d7;fill-opacity:1;stroke:none;stroke-width:17.7165;stroke-linecap:round;stroke-linejoin:round;paint-order:stroke fill markers"
       d="m 54.6875,434.375 v -32.8125 h 12.5 12.5 v 32.8125 32.8125 h -12.5 -12.5 z"
       id="path34"
       transform="scale(0.26458333)" /><path
       style="fill:#f4e3d7;fill-opacity:1;stroke:none;stroke-width:3.13187;stroke-linecap:round;stroke-linejoin:round;paint-order:stroke fill markers"
       d="m 150.14965,456.72189 c -0.22504,-0.83704 -0.41653,-14.51888 -0.42553,-30.40408 l -0.0164,-28.88217 12.42962,-4.1221 c 6.83628,-2.26715 12.65382,-4.12356 12.92785,-4.12535 0.74723,-0.005 -0.0496,34.22241 -1.02871,44.19093 -0.46259,4.70944 -0.99024,9.82042 -1.17257,11.35772 l -0.33149,2.79511 -9.20264,4.60118 c -5.06145,2.53064 -10.00552,4.9408 -10.98682,5.35592 -1.73565,0.73422 -1.7953,0.71336 -2.19335,-0.76716 z"
       id="path35"
       transform="scale(0.26458333)" /><path
       style="fill:#f4e3d7;fill-opacity:1;stroke:none;stroke-width:3.13187;stroke-linecap:round;stroke-linejoin:round;paint-order:stroke fill markers"
       d="m 149.43155,352.49243 v -36.69251 l 1.51918,-0.3083 c 0.83554,-0.16957 6.36672,-1.05917 12.2915,-1.9769 5.92478,-0.91773 11.36871,-1.76573 12.09762,-1.88444 l 1.32529,-0.21583 -0.35426,11.67821 c -0.19485,6.42301 -0.51914,21.79406 -0.72065,34.15788 -0.20151,12.36381 -0.51497,22.72009 -0.69658,23.01394 -0.69916,1.13126 -22.61393,8.92046 -25.09755,8.92046 -0.2005,0 -0.36455,-16.51163 -0.36455,-36.69251 z"
       id="path36"
       transform="scale(0.26458333)" /><path
       style="fill:#f4e3d7;fill-opacity:1;stroke:none;stroke-width:8.85827;stroke-linecap:round;stroke-linejoin:round;paint-order:stroke fill markers"
       d="M 149.21875,270.69645 V 233.1622 l 10.49798,1.07555 c 5.77388,0.59155 12.27779,1.93563 14.45312,2.98684 l 3.95515,1.91129 -0.12941,25.74456 c -0.14664,29.17339 -1.12963,36.70091 -4.99121,38.22175 -1.48054,0.58309 -7.43797,1.97554 -13.23875,3.09433 l -10.54688,2.03418 z"
       id="path37"
       transform="scale(0.26458333)" /><path
       style="fill:#acacac;fill-opacity:1;stroke:none;stroke-width:8.85827;stroke-linecap:round;stroke-linejoin:round;paint-order:stroke fill markers"
       d="m 652.12863,306.6794 c -8.57248,-1.47264 -8.83274,-1.66642 -9.69864,-7.22132 -0.48937,-3.13945 -1.37815,-19.24324 -1.97505,-35.7862 l -1.08528,-30.07813 10.00267,-0.068 c 5.50147,-0.0374 12.99095,-0.64614 16.6433,-1.3527 l 6.64062,-1.28464 v 24.55015 c 0,13.50259 -0.45685,30.98631 -1.01522,38.8527 l -1.01522,14.30254 -4.84416,-0.20056 c -2.66428,-0.1103 -8.80814,-0.88151 -13.65302,-1.71379 z"
       id="path38"
       transform="scale(0.26458333)" /><path
       style="fill:#f4e3d7;fill-opacity:1;stroke:none;stroke-width:8.85827;stroke-linecap:round;stroke-linejoin:round;paint-order:stroke fill markers"
       d="m 653.125,384.47288 -9.375,-3.65713 -0.42146,-33.89817 -0.42146,-33.89817 4.32771,0.87381 c 2.38024,0.4806 9.0738,1.66638 14.87459,2.63507 l 10.54687,1.76126 -0.18487,29.91772 c -0.10167,16.45475 -0.63235,32.02711 -1.17929,34.60523 -1.29452,6.10209 -5.73945,6.50834 -18.16709,1.66038 z"
       id="path39"
       transform="scale(0.26458333)" /><path
       style="fill:#f4e3d7;fill-opacity:1;stroke:none;stroke-width:8.85827;stroke-linecap:round;stroke-linejoin:round;paint-order:stroke fill markers"
       d="m 660.15625,452.43802 c -14.05504,-7.26637 -14.14887,-7.47255 -16.01296,-35.18487 -0.90057,-13.3883 -1.23909,-24.74068 -0.75227,-25.2275 0.48682,-0.48682 6.74331,0.77908 13.90331,2.81311 l 13.01817,3.69825 0.4251,29.24712 c 0.23381,16.08592 -0.11775,29.2133 -0.78125,29.17197 -0.66349,-0.0413 -5.07354,-2.07447 -9.8001,-4.51808 z"
       id="path40"
       transform="scale(0.26458333)" /><path
       style="fill:#f4e3d7;fill-opacity:1;stroke:none;stroke-width:8.85827;stroke-linecap:round;stroke-linejoin:round;paint-order:stroke fill markers"
       d="m 743.94741,443.35938 c -0.5699,-12.67579 -1.46566,-27.79297 -1.99057,-33.59375 l -0.95437,-10.54688 h 11.70321 11.70322 l 1.03699,25.39063 c 0.57035,13.96484 1.45233,29.08203 1.95997,33.59375 l 0.92296,8.20312 H 756.65621 744.9836 Z"
       id="path41"
       transform="scale(0.26458333)" /><path
       style="fill:#f4e3d7;fill-opacity:1;stroke:none;stroke-width:8.85827;stroke-linecap:round;stroke-linejoin:round;paint-order:stroke fill markers"
       d="m 766.52961,349.86979 c 0.075,-1.82022 0.44521,-2.19047 0.94401,-0.94401 0.45136,1.12793 0.39585,2.47559 -0.12336,2.99479 -0.5192,0.51921 -0.8885,-0.40364 -0.82065,-2.05078 z"
       id="path42"
       transform="scale(0.26458333)" /><path
       style="fill:#f4e3d7;fill-opacity:1;stroke:none;stroke-width:8.85827;stroke-linecap:round;stroke-linejoin:round;paint-order:stroke fill markers"
       d="m 741.40625,354.91848 v -36.48777 l 10.45943,-1.73318 c 7.5166,-1.24554 11.03356,-1.2567 12.5,-0.0397 2.23472,1.85465 2.90931,44.2209 1.02227,64.20151 l -0.99609,10.54687 h -11.4928 -11.49281 z"
       id="path43"
       transform="scale(0.26458333)" /><path
       style="fill:#f4e3d7;fill-opacity:1;stroke:none;stroke-width:8.85827;stroke-linecap:round;stroke-linejoin:round;paint-order:stroke fill markers"
       d="m 742.62642,307.6145 c -0.42067,-0.75048 -0.21324,-9.45044 0.46096,-19.33325 0.67419,-9.88281 1.27487,-26.23047 1.33484,-36.32812 l 0.10903,-18.35938 h 12.5 12.5 v 36.71875 36.71875 l -5.07812,0.0136 c -2.79297,0.007 -8.67447,0.44571 -13.06999,0.97387 -4.39553,0.52816 -8.33605,0.34627 -8.75672,-0.4042 z"
       id="path44"
       transform="scale(0.26458333)" /><path
       style="fill:#f4e3d7;fill-opacity:1;stroke:none;stroke-width:3.13187;stroke-linecap:round;stroke-linejoin:round;paint-order:stroke fill markers"
       d="m 742.9409,307.15677 c -0.37658,-0.98133 -0.0626,-11.44092 0.87092,-29.00969 0.28252,-5.31711 0.68525,-17.43598 0.89496,-26.93082 l 0.3813,-17.26335 h 12.08338 12.08338 v 36.38185 36.38185 l -7.31966,0.3556 c -4.02581,0.19558 -9.86287,0.51243 -12.97124,0.70411 -5.06674,0.31244 -5.69001,0.24833 -6.02304,-0.61955 z"
       id="path45"
       transform="scale(0.26458333)" /><path
       style="fill:#f4e3d7;fill-opacity:1;stroke:none;stroke-width:3.13187;stroke-linecap:round;stroke-linejoin:round;paint-order:stroke fill markers"
       d="m 662.91261,307.90651 c -5.91617,-0.56492 -14.18468,-1.92849 -16.76438,-2.76464 -1.28051,-0.41504 -2.07952,-1.15132 -2.59924,-2.39517 -1.21711,-2.91296 -2.50693,-23.38028 -3.2909,-52.22098 -0.16931,-6.22861 -0.43245,-12.50557 -0.58476,-13.94878 l -0.27693,-2.62403 4.57655,-0.001 c 6.61222,-0.002 18.79647,-0.99552 23.83442,-1.94361 2.38829,-0.44945 4.47924,-0.81719 4.64657,-0.81719 0.4678,0 -0.34733,52.77752 -0.95986,62.14806 -0.96216,14.71933 -1.03921,15.20249 -2.41064,15.11709 -0.65944,-0.0411 -3.43632,-0.2883 -6.17083,-0.54941 z"
       id="path46"
       transform="scale(0.26458333)" /><path
       style="fill:#f4e3d7;fill-opacity:1;stroke:none;stroke-width:0.553642;stroke-linecap:round;stroke-linejoin:round;paint-order:stroke fill markers"
       d="m 669.38477,309.85532 c -1.64773,-0.27096 -9.10162,-1.43008 -19.48213,-3.02959 -4.02815,-0.62068 -7.33939,-1.14399 -7.3583,-1.1629 -0.0851,-0.0851 -1.49597,-10.76555 -1.67037,-12.64525 -0.33103,-3.56776 -0.61605,-9.11931 -0.89244,-17.38281 -0.0584,-1.74561 -0.12123,-8.75489 -0.13964,-15.57618 l -0.0335,-12.40234 0.28039,7.42188 c 0.71608,18.95445 1.00131,25.38634 1.51791,34.22851 0.53054,9.08085 0.92957,12.34466 1.71304,14.01142 0.53714,1.14271 1.65047,1.86247 3.70175,2.39313 2.68714,0.69517 10.72225,1.94967 15.9598,2.49177 1.44871,0.14995 7.57419,0.47334 7.64396,0.40356 0.0345,-0.0344 0.39501,-4.94644 0.95074,-12.95222 0.35035,-5.04723 0.51118,-8.65276 0.78843,-17.67578 0.19229,-6.25777 0.27576,-12.78396 0.33912,-26.51368 0.0646,-13.98752 0.0695,-12.9948 0.0468,9.47266 -0.024,23.82123 -0.0564,27.19662 -0.33771,35.15625 -0.26854,7.59874 -0.69951,13.1172 -1.07991,13.82799 -0.12127,0.22659 -0.17795,0.22465 -1.94797,-0.0664 z"
       id="path47"
       transform="scale(0.26458333)" /><path
       style="fill:#f4e3d7;fill-opacity:1;stroke:none;stroke-width:0.553642;stroke-linecap:round;stroke-linejoin:round;paint-order:stroke fill markers"
       d=""
       id="path48"
       transform="scale(0.26458333)" /><path
       style="fill:#000000;fill-opacity:1;stroke:#000000;stroke-width:0.097871;stroke-linecap:round;stroke-linejoin:round;paint-order:stroke fill markers;stroke-opacity:0.99779248"
       d="m 674.28032,286.31696 c -1.1e-4,-0.15429 -0.008,-1.84977 -0.0168,-3.76772 -0.009,-1.91796 -0.0244,-5.17297 -0.0339,-7.23335 -0.01,-2.06038 -0.022,-4.15982 -0.0278,-4.66542 l -0.0104,-0.91927 h 0.43582 0.43582 l -0.0119,5.00206 c -0.0109,4.5949 -0.0236,6.98548 -0.0561,10.53927 l -0.0121,1.32496 h -0.35127 -0.35126 z"
       id="path49"
       transform="scale(0.26458333)" /><path
       style="fill:#000000;fill-opacity:1;stroke:#000000;stroke-width:1.56594;stroke-linecap:round;stroke-linejoin:round;stroke-opacity:0.997793;paint-order:stroke fill markers"
       d="m 647.75622,497.93221 c -0.52754,-0.85358 -2.81178,-15.65501 -4.29284,-27.81669 -2.48642,-20.41734 -3.9274,-44.99105 -5.14251,-87.69781 -0.13958,-4.90553 -0.95744,-42.11044 -0.95785,-43.57269 -1.4e-4,-0.53701 0.1445,-0.62148 1.06417,-0.62148 h 1.06434 l 0.16851,16.08944 c 0.25111,23.97583 0.71477,28.52537 3.06105,30.036 l 1.07598,0.69276 -0.84872,0.085 c -1.13719,0.11392 -1.37742,0.46873 -1.93217,2.85376 -0.40701,1.74988 -0.47294,3.66819 -0.47332,13.77214 -4.4e-4,11.84002 0.20699,16.26031 1.25733,26.79272 0.99026,9.93 2.23483,16.04733 3.84941,18.92063 0.42683,0.75959 0.93733,1.92784 1.13444,2.59611 0.356,1.20697 0.35246,1.21999 -0.53321,1.95937 -0.49037,0.40938 -1.01277,1.1669 -1.1609,1.68338 -0.6412,2.23574 -0.24049,9.25314 1.23762,21.67364 0.95946,8.06235 1.4911,13.87583 1.70752,18.67187 0.1685,3.73412 0.11242,4.5149 -0.27885,3.88183 z"
       id="path50"
       transform="scale(0.26458333)" /><path
       style="fill:#000000;fill-opacity:1;stroke:#000000;stroke-width:0.391484;stroke-linecap:round;stroke-linejoin:round;stroke-opacity:0.997793;paint-order:stroke fill markers"
       d="m 677.35317,464.90155 c -1.94191,-0.34411 -2.52932,-3.23761 -2.88072,-14.19003 -0.0402,-1.25332 -0.09,-7.55358 -0.11067,-14.00058 l -0.0376,-11.72181 h 1.49205 1.49205 l 8.7e-4,8.61441 c 10e-4,9.95476 0.0858,14.63584 0.34982,19.31769 0.33394,5.92132 0.90225,9.12894 1.83841,10.37628 0.0931,0.12399 0.3304,0.30665 0.52744,0.40591 0.81258,0.40938 0.93141,0.63829 0.4528,0.87232 -0.53399,0.26112 -2.39465,0.45514 -3.1245,0.32581 z"
       id="path51"
       transform="scale(0.26458333)" /><path
       style="fill:#000000;fill-opacity:1;stroke:#000000;stroke-width:0.782968;stroke-linecap:round;stroke-linejoin:round;stroke-opacity:0.997793;paint-order:stroke fill markers"
       d="m 726.44173,472.93453 c -3.03674,-0.14053 -6.15516,-0.36675 -8.49356,-0.61614 -1.65098,-0.17607 -16.19349,-2.29565 -16.11887,-2.34933 0.0253,-0.0182 18.21556,0.39492 31.06893,0.7056 l 4.10867,0.0993 v -36.81411 -36.81411 l -8.25188,0.0658 c -15.69884,0.12512 -30.36015,0.33202 -33.1111,0.46726 -8.73156,0.42925 -14.69889,1.11525 -16.29674,1.87349 -0.56273,0.26703 -0.66349,0.5515 -0.95737,2.70317 -0.46588,3.41094 -1.03626,14.63653 -1.04284,20.52397 l -0.002,1.96802 h -1.47271 -1.4727 l 0.096,-16.53829 c 0.0528,-9.09605 0.18602,-27.32097 0.29606,-40.49981 0.11004,-13.17884 0.20131,-24.5364 0.20281,-25.23902 l 0.003,-1.27749 h 2.20971 2.20971 v 26.65461 26.65462 h 28.79527 28.79526 v -26.65462 -26.65461 h 1.0358 1.03581 v 26.65461 26.65462 h 5.80048 5.80049 v 1.0358 1.0358 h -6.1496 -6.1496 l 0.0784,0.86317 c 0.1,1.10037 1.37376,20.57987 1.6504,25.23901 0.80769,13.60267 1.17671,25.50977 1.17811,38.0139 l 10e-4,8.94241 h 4.69564 4.69563 v 1.51071 1.51072 l -0.58696,0.077 c -2.5016,0.32807 -18.06802,0.46232 -23.65079,0.20398 z"
       id="path52"
       transform="scale(0.26458333)" /><path
       style="fill:#000000;fill-opacity:1;stroke:#000000;stroke-width:0.391484;stroke-linecap:round;stroke-linejoin:round;stroke-opacity:0.997793;paint-order:stroke fill markers"
       d="m 674.96325,340.34693 c 4.6e-4,-0.21838 0.047,-5.92575 0.10334,-12.68305 0.0564,-6.7573 0.0948,-12.29252 0.0855,-12.3005 -0.009,-0.008 -2.11452,-0.37508 -4.67812,-0.81579 -8.03811,-1.38181 -13.45307,-2.20477 -26.40979,-4.01375 -2.31501,-0.32322 -4.24937,-0.58767 -4.29857,-0.58767 -0.0729,0 -0.0895,2.53691 -0.0895,13.74163 v 13.74162 h -0.98447 c -0.54145,0 -1.083,0.0283 -1.20344,0.0628 -0.28683,0.0823 -0.29798,0.0468 -0.29815,-0.94889 -1.4e-4,-0.82901 -0.19493,-8.09635 -0.38067,-14.20208 -0.40978,-13.47017 -0.84721,-24.26385 -1.20895,-29.83107 -0.10396,-1.59979 -0.27581,-3.71489 -0.30999,-3.8152 -0.023,-0.0674 0.31716,-0.0863 1.55168,-0.0863 h 1.58109 l 0.037,0.36253 c 0.0204,0.19939 0.0706,1.18599 0.11163,2.19245 0.31153,7.63999 0.84451,14.77577 1.16696,15.62387 0.044,0.11572 0.16881,0.22684 0.33191,0.29551 2.52909,1.06486 19.55306,3.94741 30.55738,5.17408 2.06786,0.23051 1.95077,0.23696 2.29927,-0.12675 0.75543,-0.78842 1.23902,-3.37534 1.58298,-8.46805 0.20655,-3.0583 0.45205,-10.46897 0.45205,-13.64594 v -1.4077 h 1.89897 1.89896 v 0.19399 c 0,0.1067 0.18602,3.40831 0.41337,7.33692 0.22736,3.92862 0.52301,9.1006 0.657,11.4933 0.13399,2.3927 0.26095,4.51351 0.28213,4.7129 l 0.0385,0.36253 h 18.46681 18.46682 v 1.07033 1.07032 h -18.817 -18.81705 v 12.94751 12.94752 h -2.24424 -2.24423 z"
       id="path53"
       transform="scale(0.26458333)" /><path
       style="fill:#000000;fill-opacity:1;stroke:#000000;stroke-width:1.10728;stroke-linecap:round;stroke-linejoin:round;stroke-opacity:0.997793;paint-order:stroke fill markers"
       d="m 737.01172,327.73438 v -12.98829 h -9.86328 -9.86328 v -0.97656 -0.97656 h 9.86328 9.86328 v -41.01563 -41.01562 l -12.54883,-0.002 c -19.20758,-0.003 -27.10321,-0.38646 -40.34613,-1.95939 -3.57954,-0.42516 -6.60047,-0.77302 -6.71319,-0.77302 -0.26212,0 -0.0859,30.72132 0.21794,37.98829 0.32284,7.72227 0.78919,17.91426 0.92718,20.26367 l 0.12332,2.09961 h -1.76631 -1.7663 l -0.0243,-30.11407 c -0.0133,-16.56273 -0.0457,-30.13554 -0.072,-30.16178 -0.0262,-0.0262 -2.41974,0.33457 -5.31888,0.80179 -8.93917,1.44065 -14.7628,1.86365 -25.29069,1.83702 l -7.12891,-0.018 1.75781,-0.58101 c 10.11146,-3.34215 44.65795,-3.74038 98.4375,-1.13472 8.49765,0.41171 16.49009,0.89754 18.75,1.13972 l 1.36719,0.14652 -0.97656,0.12913 c -0.53711,0.071 -4.19752,0.18624 -8.13424,0.25603 l -7.15767,0.12691 -0.11338,3.34679 c -0.0624,1.84073 -0.16143,6.90636 -0.22016,11.25695 -0.0587,4.35058 -0.23263,16.83105 -0.38644,27.73437 -0.15382,10.90332 -0.33745,23.98186 -0.40806,29.06342 l -0.1284,9.2392 2.4148,-0.1313 c 3.48285,-0.18938 21.42038,-0.21168 22.28784,-0.0277 2.34489,0.49731 -1.04851,1.82898 -6.78936,2.66435 -3.24589,0.47232 -9.143,0.78522 -14.89032,0.79008 l -4.15039,0.004 v 12.98829 12.98828 h -0.97657 -0.97656 z"
       id="path54"
       transform="scale(0.26458333)" /><path
       style="fill:#000000;fill-opacity:1;stroke:#000000;stroke-width:0.782968;stroke-linecap:round;stroke-linejoin:round;stroke-opacity:0.997793;paint-order:stroke fill markers"
       d="m 630.30896,309.66996 c 0.0351,-0.17091 0.10188,-1.21189 0.14834,-2.31329 0.25117,-5.95433 1.0048,-17.91037 2.07186,-32.86942 1.23363,-17.29403 2.31035,-33.09763 2.69461,-39.55004 0.0967,-1.62414 0.21535,-2.60055 0.34684,-2.85483 0.20059,-0.3879 0.88419,-0.96066 1.14656,-0.96066 0.0772,0 0.17356,0.38842 0.21418,0.86317 0.0406,0.47474 0.26602,9.65711 0.50091,20.40528 0.4421,20.23084 0.58243,25.60133 0.83661,32.01937 0.0823,2.0771 0.12958,3.79604 0.10515,3.81987 -0.0244,0.0238 -0.74366,0.0645 -1.59829,0.0905 l -1.55387,0.0471 -0.002,-0.41432 c -0.001,-0.22787 -0.0606,-0.50702 -0.13218,-0.62032 -0.50179,-0.79369 -1.0322,2.02305 -1.65118,8.76863 -0.33593,3.66082 -0.97649,12.34583 -0.97649,13.23957 v 0.64016 h -1.10748 c -1.07536,0 -1.10564,-0.009 -1.04362,-0.31074 z"
       id="path55"
       transform="scale(0.26458333)" /><path
       style="fill:#000000;fill-opacity:1;stroke:#000000;stroke-width:1.0022;stroke-linecap:round;stroke-linejoin:round;stroke-opacity:0.997793;paint-order:stroke fill markers"
       d="m 789.85097,915.1423 c -0.51482,-1.34162 -0.54971,-17.62271 -0.0893,-41.68865 0.33464,-17.49296 -0.0841,-44.7952 -1.07093,-69.8268 -0.092,-2.33345 -0.22179,-5.73419 -0.28842,-7.5572 l -0.12116,-3.31456 h 1.16124 1.16123 l 0.1,1.28163 c 0.10575,1.35551 0.35666,9.87927 0.63613,21.61095 0.73899,31.02092 0.65698,70.58179 -0.18159,87.59285 -0.27897,5.65919 -0.85799,11.88304 -1.13088,12.15593 -0.0313,0.0313 -0.11063,-0.0831 -0.17628,-0.25415 z"
       id="path56"
       transform="scale(0.26458333)" /><path
       style="fill:#000000;fill-opacity:1;stroke:#000000;stroke-width:0.501099;stroke-linecap:round;stroke-linejoin:round;stroke-opacity:0.997793;paint-order:stroke fill markers"
       d="m 788.16734,791.36297 c -0.0287,-0.44967 -0.11303,-2.24948 -0.18732,-3.99957 -0.34621,-8.15524 -1.03702,-22.28955 -1.63452,-33.44303 -0.19367,-3.61514 -0.35212,-6.60819 -0.35212,-6.65122 0,-0.043 0.55685,-0.0782 1.23744,-0.0782 h 1.23743 l 8e-5,0.28726 c 4e-5,0.15799 0.13863,2.71352 0.30798,5.67895 1.02743,17.99152 1.90155,35.6958 1.90164,38.51522 l 10e-6,0.50823 h -1.22919 -1.22918 z"
       id="path57"
       transform="scale(0.26458333)" /><path
       style="fill:#000000;fill-opacity:1;stroke:#000000;stroke-width:0.553642;stroke-linecap:round;stroke-linejoin:round;stroke-opacity:0.997793;paint-order:stroke fill markers"
       d="m 785.94661,746.21582 c -0.031,-0.3894 -0.1014,-1.56494 -0.1564,-2.6123 -0.16431,-3.12897 -1.16084,-20.76133 -1.31815,-23.32301 -0.0802,-1.30665 -0.14588,-2.41627 -0.14588,-2.46582 0,-0.0501 0.53253,-0.0901 1.20038,-0.0901 h 1.20038 l 0.16696,2.90528 c 0.95585,16.63315 1.43773,24.90586 1.48754,25.53711 l 0.0597,0.75683 h -1.21908 -1.21908 z"
       id="path72"
       transform="scale(0.26458333)" /><path
       style="fill:#000000;fill-opacity:1;stroke:#000000;stroke-width:1.56594;stroke-linecap:round;stroke-linejoin:round;stroke-opacity:0.997793;paint-order:stroke fill markers"
       d="m 784.20237,714.22414 c -0.15155,-2.62348 -2.36637,-38.63116 -5.83205,-94.81517 -0.94159,-15.26453 -4.55743,-77.55353 -4.55768,-78.51371 -2.7e-4,-1.03574 -2e-4,-1.0358 1.18271,-1.0358 h 1.18298 l 0.76284,14.15594 c 1.19728,22.21791 2.48286,44.2105 5.2919,90.52901 3.6877,60.80683 4.3663,72.38069 4.24973,72.48179 -0.0565,0.049 -0.55045,0.16992 -1.09769,0.2687 l -0.99498,0.17961 z"
       id="path73"
       transform="scale(0.26458333)" /><path
       style="fill:#000000;fill-opacity:1;stroke:#000000;stroke-width:0.276821;stroke-linecap:round;stroke-linejoin:round;stroke-opacity:0.997793;paint-order:stroke fill markers"
       d="m 773.55957,539.26205 c 0,-0.0125 -0.0546,-0.96336 -0.12128,-2.11307 -0.41405,-7.13653 -1.46094,-25.87646 -1.95255,-34.95171 -0.17458,-3.22266 -0.33168,-6.10657 -0.34913,-6.40869 l -0.0317,-0.54932 h 1.46732 1.46731 l 0.0274,0.354 c 0.0151,0.19471 0.0394,0.61768 0.0542,0.93995 0.0949,2.07176 0.60228,12.57488 0.80673,16.69921 0.45513,9.18147 1.24099,24.53587 1.29765,25.35401 l 0.0313,0.45166 -0.84809,0.002 c -0.94292,0.002 -1.4819,0.0553 -1.70236,0.16928 -0.0807,0.0417 -0.14671,0.0657 -0.14671,0.0532 z"
       id="path74"
       transform="scale(0.26458333)" /><path
       style="fill:#000000;fill-opacity:1;stroke:#000000;stroke-width:1.56594;stroke-linecap:round;stroke-linejoin:round;stroke-opacity:0.997793;paint-order:stroke fill markers"
       d="m 771.20285,494.49138 c -0.0584,-0.1899 -0.31151,-4.81993 -0.56238,-10.28896 -0.25087,-5.46903 -0.52187,-10.17256 -0.60223,-10.45228 -0.2983,-1.03842 -1.88686,-1.392 -6.72199,-1.49617 -2.50664,-0.054 -6.2666,0.003 -8.35546,0.12655 l -3.79794,0.22474 v -1.45203 -1.45202 h 9.80558 9.80559 v -1.23853 c 0,-0.6812 -0.30608,-6.49204 -0.68016,-12.91299 -1.52001,-26.08984 -2.07953,-39.83038 -2.08097,-51.10394 l -10e-4,-7.94114 h -8.42451 -8.42452 v -0.96675 -0.96675 h 8.1483 c 7.57605,0 8.14832,-0.034 8.14856,-0.48337 1.4e-4,-0.26586 0.37205,-4.95804 0.82647,-10.42707 0.45442,-5.46903 0.8272,-10.22335 0.82839,-10.56517 0.002,-0.55493 0.13946,-0.62148 1.28439,-0.62148 h 1.28223 l -0.1887,5.17901 c -0.10378,2.84845 -0.33897,6.23552 -0.52264,7.52682 -0.22738,1.5986 -0.32268,6.44644 -0.29866,15.19175 0.0433,15.76133 0.62305,34.44822 2.18523,70.43446 0.3792,8.73525 0.76882,17.71565 0.86583,19.95643 l 0.17637,4.07415 h -1.29476 c -0.79499,0 -1.33577,-0.13327 -1.40101,-0.34526 z"
       id="path75"
       transform="scale(0.26458333)" /><path
       style="fill:#000000;fill-opacity:1;stroke:#000000;stroke-width:0.391484;stroke-linecap:round;stroke-linejoin:round;stroke-opacity:0.997793;paint-order:stroke fill markers"
       d="m 769.08256,371.76452 c 2e-4,-0.0276 0.0306,-0.62495 0.0675,-1.32757 0.30079,-5.72269 1.02645,-28.0179 1.27886,-39.29138 0.0208,-0.9305 0.0556,-2.01032 0.0773,-2.39961 l 0.0394,-0.7078 h 1.21167 1.21168 l -0.0465,2.01981 c -0.35717,15.53206 -0.44578,19.1624 -0.66532,27.25883 -0.13731,5.06394 -0.29922,10.51666 -0.38702,13.03383 l -0.0464,1.32928 h -1.19368 c -0.65652,0 -1.27338,0.0303 -1.3708,0.0673 -0.0974,0.037 -0.17697,0.0448 -0.17678,0.0173 z"
       id="path76"
       transform="scale(0.26458333)" /><path
       style="fill:#000000;fill-opacity:1;stroke:#000000;stroke-width:0.276821;stroke-linecap:round;stroke-linejoin:round;stroke-opacity:0.997793;paint-order:stroke fill markers"
       d="m 770.54983,326.47705 c 0.24227,-9.79802 0.34002,-13.88637 0.44569,-18.64013 0.0689,-3.10181 0.13785,-5.86487 0.15311,-6.14014 l 0.0278,-0.50049 h 1.16718 1.16718 v 0.32959 c -1e-5,0.93951 -0.47121,24.0414 -0.51889,25.43945 l -0.0287,0.84229 h -1.22311 -1.2231 z"
       id="path77"
       transform="scale(0.26458333)" /><path
       style="fill:#000000;fill-opacity:1;stroke:#000000;stroke-width:0.276821;stroke-linecap:round;stroke-linejoin:round;stroke-opacity:0.997793;paint-order:stroke fill markers"
       d="m 771.16708,300.72022 c 4e-5,-0.18128 0.0329,-1.74683 0.0731,-3.47901 0.11454,-4.93767 0.3578,-16.51622 0.41599,-19.7998 0.029,-1.63819 0.0643,-3.09387 0.0783,-3.23487 l 0.0255,-0.25634 h 1.11953 1.11954 l -4.9e-4,0.40283 c -2.6e-4,0.22156 -0.0545,3.45703 -0.1205,7.18994 -0.066,3.73291 -0.16489,9.35791 -0.21974,12.5 -0.0548,3.14209 -0.11273,6.00403 -0.12864,6.35986 l -0.0289,0.64698 h -1.16687 -1.16687 z"
       id="path78"
       transform="scale(0.26458333)" /><path
       style="fill:#000000;fill-opacity:1;stroke:#000000;stroke-width:0.553642;stroke-linecap:round;stroke-linejoin:round;stroke-opacity:0.997793;paint-order:stroke fill markers"
       d="m 771.78602,272.14356 c 0.0701,-2.35629 0.31075,-15.24987 0.43248,-23.16895 0.0574,-3.73291 0.12791,-7.06177 0.15674,-7.39746 l 0.0524,-0.61035 h 1.01762 1.01761 l -0.002,1.7334 c -10e-4,1.22936 -0.46274,30.82557 -0.48426,31.05468 -0.001,0.0134 -0.50568,0.0244 -1.12092,0.0244 h -1.11861 z"
       id="path79"
       transform="scale(0.26458333)" /><path
       style="fill:#000000;fill-opacity:1;stroke:#000000;stroke-width:0.553642;stroke-linecap:round;stroke-linejoin:round;stroke-opacity:0.997793;paint-order:stroke fill markers"
       d="m 772.41226,239.5785 c 1.6e-4,-1.19568 0.44331,-26.83921 0.53546,-30.98475 0.031,-1.39648 0.12184,-5.92285 0.20178,-10.05859 0.08,-4.13574 0.18818,-9.34326 0.24052,-11.57227 0.0523,-2.229 0.0954,-4.39331 0.0957,-4.80957 l 5.7e-4,-0.75683 h 1.02539 1.02539 l -1.6e-4,0.95214 c -9e-5,0.52369 -0.0652,4.07227 -0.14463,7.88575 -0.24212,11.62077 -0.63111,33.54918 -0.81333,45.84961 l -0.0673,4.54101 -1.0498,0.0277 -1.04981,0.0277 z"
       id="path80"
       transform="scale(0.26458333)" /><path
       style="fill:#000000;fill-opacity:1;stroke:#000000;stroke-width:0.195742;stroke-linecap:round;stroke-linejoin:round;stroke-opacity:0.997793;paint-order:stroke fill markers"
       d="m 773.4845,180.96306 c 1.7e-4,-0.18141 0.23737,-10.53327 0.37876,-16.52966 0.0575,-2.44017 0.11392,-4.62701 0.12529,-4.85963 l 0.0207,-0.42295 h 1.04383 c 0.57411,0 1.05031,0.006 1.05822,0.0143 0.008,0.008 -0.004,0.71871 -0.0264,1.5796 -0.0527,2.02051 -0.17368,7.00483 -0.21739,8.95395 -0.0187,0.83555 -0.0427,1.81438 -0.0533,2.17519 -0.0305,1.04246 -0.11423,4.82179 -0.15602,7.04344 -0.0211,1.12039 -0.0452,2.07204 -0.0537,2.11476 l -0.0153,0.0777 h -1.05241 -1.05241 z"
       id="path81"
       transform="scale(0.26458333)" /><path
       style="fill:#000000;fill-opacity:1;stroke:#000000;stroke-width:0.782968;stroke-linecap:round;stroke-linejoin:round;stroke-opacity:0.997793;paint-order:stroke fill markers"
       d="m 774.0826,157.131 c 0.0454,-1.04443 0.17551,-5.5657 0.2892,-10.04726 0.62471,-24.62658 1.75971,-55.71808 2.06832,-56.658317 0.0395,-0.120456 0.41816,-0.172633 1.25272,-0.172633 h 1.19605 l -0.0897,1.208434 c -0.6403,8.622096 -1.37749,24.171296 -1.94301,40.983196 -0.29867,8.87895 -0.76394,24.61517 -0.76462,25.86049 l -3.9e-4,0.72506 h -1.04551 -1.04551 z"
       id="path83"
       transform="scale(0.26458333)" /><path
       style="fill:#000000;fill-opacity:1;stroke:#000000;stroke-width:0.276821;stroke-linecap:round;stroke-linejoin:round;stroke-opacity:0.997793;paint-order:stroke fill markers"
       d="m 776.44103,89.763994 c 0.001,-0.304969 0.14359,-1.779769 0.36334,-3.760905 0.53683,-4.83988 1.07362,-11.363541 1.44174,-17.521643 0.0538,-0.899658 0.11083,-1.795044 0.12678,-1.989746 l 0.029,-0.354004 h 1.38744 c 0.76309,0 1.38743,0.01848 1.38743,0.04108 0,0.514519 -0.69482,7.687929 -1.22097,12.605407 -0.39469,3.688853 -0.73579,7.409041 -0.93387,10.185351 l -0.0596,0.834764 -1.12669,0.03295 c -0.61967,0.01812 -1.18711,0.04604 -1.26096,0.06204 -0.12573,0.02724 -0.13424,0.01863 -0.13368,-0.135291 z"
       id="path85"
       transform="scale(0.26458333)" /><path
       style="fill:#000000;fill-opacity:1;stroke:#000000;stroke-width:0.553642;stroke-linecap:round;stroke-linejoin:round;stroke-opacity:0.997793;paint-order:stroke fill markers"
       d="m 778.46822,65.454102 c 7.8e-4,-0.281983 0.043,-1.259766 0.0939,-2.172852 0.10247,-1.83952 0.26373,-5.48538 0.33907,-7.666015 0.13103,-3.792415 0.16273,-4.986525 0.25278,-9.521485 0.18177,-9.153828 0.39825,-12.646484 0.78386,-12.646484 0.2057,0 0.62438,1.53044 1.16213,4.248047 0.77607,3.921981 0.92869,6.221694 0.85437,12.87407 -0.0526,4.710551 -0.16934,7.312329 -0.55849,12.449659 -0.10707,1.413403 -0.19466,2.654858 -0.19466,2.758789 0,0.177852 -0.0804,0.188966 -1.36719,0.188966 h -1.36719 z"
       id="path88"
       transform="scale(0.26458333)" /></g><metadata
     id="metadata66"><rdf:RDF><cc:Work
         rdf:about=""><dc:title>Retro vettorizzato</dc:title></cc:Work></rdf:RDF></metadata></svg>
